<svg width="60" height="60" viewBox="0 0 60 60" fill="none" xmlns="http://www.w3.org/2000/svg">
<path d="M24.2821 19.9365C16.5119 19.9365 10.2129 25.5757 10.2129 32.5322H24.2821V19.9365Z" fill="#17E2D2" stroke="#17E2D2" stroke-width="1.5"/>
<path d="M6.33633 39.815C9.43298 45.92 16.3026 50.1655 24.2799 50.1655V32.5317H12.1804C8.52086 32.5317 6.69108 32.5317 5.57853 34.3297C4.46598 36.1277 5.08943 37.3567 6.33633 39.815Z" fill="#00B8A9" stroke="#00B8A9" stroke-width="1.5"/>
<path d="M31.7853 54.1915C42.1068 51.3277 49.6038 42.7135 49.6038 32.5317H24.2793V47.6465C24.2793 51.3305 24.2793 53.1725 25.7808 54.3065C27.2825 55.4407 28.7833 55.0242 31.7853 54.1915Z" fill="#17E2D2" stroke="#17E2D2" stroke-width="1.5"/>
<path d="M54.1013 25.0857C51.1325 15.536 42.5943 8.06319 31.8168 5.64894C28.693 4.94919 27.131 4.59932 25.7053 5.73384C24.2793 6.86837 24.2793 8.70519 24.2793 12.3789V32.5317H47.634C51.3338 32.5317 53.1835 32.5317 54.3223 30.996C55.461 29.46 55.0078 28.002 54.1013 25.0857Z" fill="#00B8A9" stroke="#00B8A9" stroke-width="1.5"/>
</svg>
