<svg width="24" height="24" viewBox="0 0 24 24" fill="none" xmlns="http://www.w3.org/2000/svg">
<path d="M5.40619 20.7688H13.7353C15.0606 20.7688 16.1415 19.6878 16.1415 18.3626V5.4136C16.1415 4.0809 15.0606 3 13.7353 3H5.40619C4.0809 3 3 4.0809 3 5.4136V18.3626C3 19.6878 4.0809 20.7688 5.40619 20.7688ZM6.69893 5.96444H12.4411C12.8503 5.96444 13.1815 6.29558 13.1815 6.70481C13.1815 7.11403 12.8503 7.44517 12.4411 7.44517H6.69893C6.28971 7.44517 5.95857 7.11403 5.95857 6.70481C5.95857 6.29558 6.28971 5.96444 6.69893 5.96444ZM6.69893 9.41972H12.4411C12.8503 9.41972 13.1815 9.75086 13.1815 10.1601C13.1815 10.5693 12.8503 10.9004 12.4411 10.9004H6.69893C6.28971 10.9004 5.95857 10.5693 5.95857 10.1601C5.95857 9.75086 6.28971 9.41972 6.69893 9.41972ZM6.69893 12.8743H12.4411C12.8503 12.8743 13.1815 13.2054 13.1815 13.6146C13.1815 14.0239 12.8503 14.355 12.4411 14.355H6.69893C6.28971 14.355 5.95857 14.0239 5.95857 13.6146C5.95857 13.2054 6.28971 12.8743 6.69893 12.8743ZM6.69893 16.3295H9.57002C9.97924 16.3295 10.3104 16.6607 10.3104 17.0699C10.3104 17.4791 9.97924 17.8103 9.57002 17.8103H6.69893C6.28971 17.8103 5.95857 17.4791 5.95857 17.0699C5.95857 16.6607 6.28971 16.3295 6.69893 16.3295Z" fill="#F6F6F6"/>
<path d="M21 9.22837C21 8.11782 20.0968 7.2146 18.9937 7.2146C17.8831 7.2146 16.9797 8.11782 16.9797 9.22837V10.102H21V9.22837Z" fill="#F6F6F6"/>
<path d="M16.9797 17.9647C16.9797 18.0462 17.002 18.1276 17.0538 18.1869L18.6974 20.2747C18.7715 20.3635 18.8751 20.4153 18.9937 20.4153C19.1047 20.4153 19.2084 20.3635 19.2824 20.2747L20.9259 18.1869C20.9778 18.1276 21 18.0462 21 17.9647V11.5828H16.9797V17.9647Z" fill="#F6F6F6"/>
</svg>
