<svg width="24" height="24" viewBox="0 0 24 24" fill="none" xmlns="http://www.w3.org/2000/svg">
<path d="M15.1992 9.39844C18.3978 9.39844 21 12.0007 21 15.1992C21 18.3978 18.3978 21 15.1992 21C12.0007 21 9.39844 18.3978 9.39844 15.1992C9.39844 12.0007 12.0007 9.39844 15.1992 9.39844ZM3 14.8672C4.13773 15.9807 6.1801 16.7036 8.53223 16.7686C8.70987 17.523 9.01151 18.2292 9.41602 18.8652C9.23437 18.8741 9.05559 18.8906 8.87109 18.8906C5.61844 18.8906 3 17.5007 3 15.7266V14.8672ZM14.6719 12.6592C14.0594 12.8776 13.6172 13.4579 13.6172 14.1445C13.6172 15.0169 14.3269 15.7266 15.1992 15.7266C15.4902 15.7266 15.7266 15.963 15.7266 16.2539C15.7266 16.5449 15.4902 16.7812 15.1992 16.7812C14.9083 16.7812 14.6719 16.5449 14.6719 16.2539H13.6172C13.6172 16.9405 14.0594 17.5208 14.6719 17.7393V18.8906H15.7266V17.7393C16.3391 17.5208 16.7812 16.9405 16.7812 16.2539C16.7812 15.3815 16.0716 14.6719 15.1992 14.6719C14.9083 14.6719 14.6719 14.4355 14.6719 14.1445C14.6719 13.8536 14.9083 13.6172 15.1992 13.6172C15.4902 13.6172 15.7266 13.8536 15.7266 14.1445H16.7812C16.7812 13.4579 16.3391 12.8776 15.7266 12.6592V11.5078H14.6719V12.6592ZM3 11.7031C4.13875 12.8177 6.18402 13.5407 8.53906 13.6045C8.41624 14.1171 8.34376 14.6495 8.34375 15.1992C8.34375 15.3681 8.35705 15.5343 8.36914 15.7002C5.36472 15.5633 3 14.2425 3 12.5625V11.7031ZM3 8.53906C4.19271 9.70639 6.36737 10.4531 8.87109 10.4531C9.38533 10.4531 9.8774 10.4146 10.3535 10.3545C9.72587 10.9822 9.22078 11.7315 8.87305 12.5625H8.87109C5.61844 12.5625 3 11.1726 3 9.39844V8.53906ZM8.87109 3C12.1237 3 14.6719 4.46025 14.6719 6.23438C14.6719 8.0085 12.1237 9.39844 8.87109 9.39844C5.61844 9.39844 3 8.0085 3 6.23438C3 4.46025 5.61844 3 8.87109 3Z" fill="#F6F6F6"/>
</svg>
