<svg width="24" height="24" viewBox="0 0 24 24" fill="none" xmlns="http://www.w3.org/2000/svg">
<path fill-rule="evenodd" clip-rule="evenodd" d="M9.58124 13.4392C9.8521 13.1688 10.2909 13.1687 10.5617 13.4392C10.8325 13.7101 10.8325 14.1498 10.5617 14.4207L4.18378 20.7966C3.91287 21.0674 3.47417 21.0674 3.20331 20.7966C2.93252 20.5258 2.93259 20.0871 3.20331 19.8162L9.58124 13.4392ZM10.5617 16.6697C10.7457 16.6697 10.9228 16.7427 11.0529 16.8728C11.3235 17.1436 11.3233 17.5824 11.0529 17.8533L8.59979 20.3064C8.32891 20.5768 7.89011 20.577 7.61932 20.3064C7.34849 20.0355 7.34849 19.5959 7.61932 19.325L10.0715 16.8728C10.2014 16.7428 10.3779 16.6698 10.5617 16.6697ZM20.2541 3.00172C20.3554 2.99473 20.4586 3.00899 20.5529 3.04567C20.9108 3.18194 21.0903 3.58319 20.9543 3.94117L15.5588 18.1658C15.4749 18.3894 15.2792 18.5532 15.0451 18.6004C14.6696 18.6755 14.3048 18.431 14.2297 18.0554L12.8498 11.1521L5.94452 9.77028C5.71231 9.72313 5.52041 9.55933 5.43475 9.33766C5.29851 8.98135 5.47616 8.57943 5.83417 8.44313L20.0598 3.04567C20.1226 3.02296 20.1877 3.00697 20.2541 3.00172ZM6.63788 12.7459C6.82179 12.7459 6.99807 12.819 7.12811 12.949C7.39889 13.2198 7.39879 13.6585 7.12811 13.9295L4.67596 16.3826L4.67499 16.3836C4.40378 16.6541 3.96411 16.6537 3.69354 16.3826C3.42271 16.1117 3.42271 15.672 3.69354 15.4011L6.14764 12.949C6.2777 12.819 6.45398 12.7459 6.63788 12.7459Z" fill="#F6F6F6"/>
</svg>
