<svg viewBox="1.68 2.22 396.01 80.29" xmlns="http://www.w3.org/2000/svg" width="2500" height="495"><path d="M1.68 81.13V6.08l.69-.69h41.35l10.36 10.3.34 20.59-7.71 6.98 7.25 6.98.08 20.55-9.87 10.34zm37.67-61.05H16.38v16.07h22.97zm0 30.3H16.38V66.9h22.97zM252.97 81.13h-14.7l-9.19-28.92h-13.32v28.92h-14.7V5.85h41.58l10.32 10.34-.08 25.14-9.56 10.2 9.65 29.59zm-14.7-61.51h-21.82l-.69.69v17.67h22.51zM187.28 81.13h-14.47L162.7 52.21h-12.63v28.92h-14.7V5.85h41.58l10.33 10.8-.08 24.22-9.99 10.63 10.09 29.63zm-14.7-43.15V20.31l-.69-.69h-21.82v18.36zM397.69 29.26h-14.7v-9.18h-22.05v13.77l29.18 6.87 7.47 8.6V70.7l-9.75 9.99-1.38.46-29.79-.12-10.43-9.77V57.72h14.7v9.18h22.05V53.13l-27.68-6.08c-1.23-.49-8.82-8.47-9.07-9.76l.08-21.47 9.99-9.76 31.4-.11 9.97 9.77v13.54zM276.86 5.85l14.7 28.92L305.8 5.85h16.08l-23.43 45.67v29.61h-14.7V51.07L260.78 5.85zM68.75 43.95V24.9L94.31 2.22c1.47 1.08 10.91 8.85 10.71 9.79L68.75 43.96zM68.75 74.7V55.66L94 33.58l1.83.53 9.18 8.3zM120.66 75.16L95.85 52.9l10.72-8.9c4.92 3.93 9.62 8.16 14.1 12.56v18.59zM120.66 43.95l-24.8-21.8 10.8-9.33 14 12.54zM342.56 5.4l-9.19 16.98H322.8l8.96-16.98zM96.77 71.03h7.35l-5.54 4.45 1.86 7.03-5.74-3.99-5.96 3.99 2.1-7.05-6.01-4.43h7.81l2.07-6.89z"/></svg>