<svg version="1.2" xmlns="http://www.w3.org/2000/svg" viewBox="0 0 1575 336" width="1575" height="336">
	<title>GoodRx_logo-svg</title>
	<style>
		.s0 { fill: #000000 } 
		.s1 { fill: #ffdb00 } 
	</style>
	<g id="Layer">
		<g id="Layer">
			<path id="Layer" fill-rule="evenodd" class="s0" d="m567.9 244.9c16.9 0 33.7-4.1 49.2-15.4v-38.6h-47.1v-34.4h87.1v90.8c-20.3 19.7-48.9 35.5-89.1 35.5-72.6 0-118.7-51.3-118.7-115 0-63.7 46.1-115 115.3-115 33.7 0 63.2 12.8 83.5 35.8l-29.2 28.9c-13.1-16.2-32-25.8-54.3-25.8-42.3 0-73.9 35.1-73.9 76-0.1 42.1 31.5 77.2 77.2 77.2zm197.8 38.3c-47.7 0-86.3-38.2-86.3-85.4 0-47.2 38.6-85.4 86.3-85.4 47.7 0 86.3 38.2 86.3 85.4 0 47.2-38.6 85.4-86.3 85.4zm47.8-85.5c0-26.6-21.4-48.2-47.8-48.2-26.4 0-47.8 21.6-47.8 48.2 0 26.7 21.4 48.2 47.8 48.2 26.4 0 47.8-21.5 47.8-48.2zm138.6 85.5c-47.7 0-86.3-38.2-86.3-85.4 0-47.2 38.6-85.4 86.3-85.4 47.7 0 86.3 38.2 86.3 85.4 0 47.2-38.6 85.4-86.3 85.4zm47.8-85.5c0-26.6-21.4-48.2-47.8-48.2-26.5 0-47.8 21.6-47.8 48.2 0 26.7 21.3 48.2 47.8 48.2 26.4 0 47.8-21.5 47.8-48.2zm186.4-141.4h38.5v223.4h-38.5v-16.9c-12.1 12.8-30 20.3-50.2 20.3-46.8 0-84-39.6-84-85.4 0-45.7 37.2-85.3 84-85.3 20.2 0 38.1 7.5 50.2 20.3zm0 141.5c0-26.7-21.4-48.2-47.8-48.2-26.5 0-47.9 21.5-47.9 48.2 0 26.6 21.4 48.2 47.9 48.2 26.4 0 47.8-21.6 47.8-48.2zm199.4 81.9l-51.9-88.5h-44v88.5h-27.2v-223.4h69.5c53.6 0 77.7 29.6 77.7 66.8 0 30.9-15.8 56.1-47.1 64.7l54 91.9zm-96-110.8h43.7c33 0 49.1-17.2 49.1-43.7 0-26.6-16.1-43.8-49.1-43.8h-43.7zm192.3 26.2l-57.1-78.8h30.6l41.9 57.8 42-57.8h30.6l-57.1 79.1 61.6 84.3h-31l-46.4-63.3-45.7 63.3h-31z"/>
		</g>
		<g id="Layer">
			<g id="Layer">
				<path id="Layer" class="s1" d="m278.3 103.3h-46v-46.1c0-31.5-25.5-57-57-57-31.4 0-57 25.5-57 57v160.1h160c31.5 0 57-25.5 57-57 0-31.5-25.5-57-57-57zm-159.9 128.7v46.8c0 31.5 25.5 57 57 57 31.4 0 57-25.5 57-57v-46.8zm-15.4-128.7h-46c-31.5 0-57 25.5-57 57 0 31.5 25.5 57 57 57h46z"/>
			</g>
		</g>
	</g>
</svg>