<?xml version="1.0" encoding="utf-8"?>
<!-- Generator: Adobe Illustrator 27.0.0, SVG Export Plug-In . SVG Version: 6.00 Build 0)  -->
<svg version="1.1" id="Layer_1" xmlns="http://www.w3.org/2000/svg" xmlns:xlink="http://www.w3.org/1999/xlink" x="0px" y="0px"
	 viewBox="0 0 512 512" style="enable-background:new 0 0 512 512;" xml:space="preserve">
<style type="text/css">
	.st0{fill:#231F20;}
</style>
<g id="XMLID_1_">
	<path id="XMLID_26_" class="st0" d="M484.34,237.88c-2.95,0.42-7.85,0.7-10.8,0c-0.56-2.24-1.54-3.93-1.96-6.31
		c3.79,1.82,9.12,1.68,12.76,0C484.34,233.68,484.2,235.36,484.34,237.88 M503.84,236.34c-2.52,1.68-7.29,3.65-10.66,4.77
		c-15.99,4.91-36.89,0.56-48.53-6.17c-1.54-10.94-3.93-22.72-10.24-29.88c-15.71,3.37-32.26,2.38-45.3-2.95
		c-4.77-1.96-8.42-5.61-13.47-8.42s-9.12-5.47-12.76-8.7c-3.79-3.37-7.29-6.73-10.94-10.24c-6.87-6.73-17.11-15.15-28.19-13.47
		c-7.99,1.26-15.99,8.7-14.59,18.65c0.98,7.43,11.36,17.67,18.94,12.34c3.79-2.66,5.75-12.34,0.42-13.47
		c-3.23,4.49-4.91,2.38-6.17,1.4c-1.12-1.4-0.98-4.49,0.42-5.47c14.45-7.43,18.65,20.34,4.07,23.28
		c-13.47,1.96-25.11-13.61-21.88-25.95c2.1-7.85,11.36-16.55,22.72-15.29c3.37,0.28,6.45,1.12,9.82,2.52
		c16.69,7.43,28.75,26.37,47.55,36.47c14.17,7.71,30.02,8.56,50.77,5.05c0.42-0.14,0.28-0.14,0.7,0.42
		c7.15,6.73,11.36,17.25,11.64,29.6c-0.14,1.68-2.24,1.54-2.52,2.95c1.54,0,1.4-1.4,3.23-1.12c10.8,5.19,29.45,9.96,43.48,5.05
		c3.37-1.12,10.38-5.19,9.82-8.7c-0.98-6.45-19.22-7.01-21.88-2.24c0.98,1.26,3.93,0.42,5.19,1.4c-2.38,5.33-12.34,2.81-15.71,0
		c0.84-4.63,7.29-6.87,12.48-7.99c7.29-1.68,16.69-0.42,21.88,2.52c1.82,1.12,5.75,3.93,5.89,6.17
		C509.73,231.15,505.66,235.08,503.84,236.34 M477.19,322.04c-15.57,5.89-32.68-5.61-34.36-19.64c-0.98-8.7,5.05-16.27,14.59-15.01
		c8.28,1.12,15.99,10.24,14.59,18.23c-1.12,6.03-11.64,7.01-12.06-1.4c1.96-1.26,2.38,1.54,5.05,0.7
		c3.65-6.87-6.31-13.47-13.47-10.24c-7.01,3.23-2.38,15.29,1.82,19.36c8.7,8.28,25.53,6.59,29.6-3.65
		c2.38-10.52-3.51-17.53-7.99-23.28c5.61,2.81,8.42,4.21,10.66,8.42C490.24,303.95,487.99,317.97,477.19,322.04 M445.77,338.45
		c-6.59,6.45-13.32,12.9-19.5,19.78c-6.73-2.81-9.96-7.01-12.9-13.61c1.12-2.66,5.05-5.89,7.01-7.43
		c11.78-8.84,16.55-20.06,21.04-35.49c0.14,2.66,0,4.07,0.56,5.33c4.21,11.36,13.61,19.36,28.33,19.08
		C461.06,330.6,452.65,331.72,445.77,338.45 M344.92,319.1c-7.43-1.26-16.55-8.84-18.23-15.29c-2.81-9.12,0.98-19.08,6.87-22.3
		c4.91-2.38,9.54-2.1,14.59,0.42c8.14,4.07,6.17,17.95-2.24,19.64c-3.51,0.7-8.28-1.26-8.84-4.77c-0.42-3.09,1.54-5.47,5.05-4.07
		c1.4,1.4-0.98,1.4-0.7,2.95c1.68,2.24,5.61,1.26,7.29-0.42c4.21-7.43-8.14-14.03-14.31-9.12c-7.43,5.89-3.37,19.64,2.52,24.83
		c4.91,3.65,9.82,4.91,15.71,4.77c9.68-0.28,15.85-7.15,25.25-7.99C368.21,312.08,358.67,321.34,344.92,319.1 M291.77,292.73
		c-2.52-0.98-3.79-5.75-3.09-11.22c1.54-5.05,4.91-7.99,9.54-7.99c2.52,0,6.31,2.38,9.54,3.65c6.73,2.66,14.59,5.05,22.86,4.77
		c-3.23,3.65-6.17,7.15-6.31,13.18c0,2.1-0.42,5.19,1.4,11.22C316.17,298.62,307.48,292.03,291.77,292.73 M287.28,284.87
		c-12.76-5.05-25.39,1.12-32.12,7.71c-6.03-6.87-19.64-12.9-31-6.87v-3.23c9.54-4.07,20.34-2.1,27.77,2.52
		c0.98,0.56,3.09,2.95,3.23,2.95c1.26,0.14,6.59-5.05,9.12-5.89c4.91-1.54,9.4-2.1,13.89-1.82
		C281.53,280.24,287.98,280.38,287.28,284.87 M220.23,292.73c-3.09,0.28-5.47,0-7.15,0.14c-11.64,0.98-20.06,7.43-28.19,11.64
		c3.51-8.84,1.82-17.67-2.95-23.28c4.63-0.28,8.28-0.14,12.48-1.12c7.29-1.68,12.9-7.29,19.78-6.17c3.37,0.56,6.45,1.96,7.71,5.05
		C223.18,283.19,222.48,291.6,220.23,292.73 M146.46,316.99c2.66-0.28,4.77-0.14,7.15-0.14c15.01-0.28,28.05-9.26,26.65-24.83
		c-0.42-4.77-4.77-8.84-9.82-8.42c-3.79,0.28-10.66,5.89-7.99,10.94c0.84,1.54,2.38,1.96,3.65,1.82c3.37-0.42,1.26-3.37,3.23-5.05
		c0.56-0.14,1.12-0.28,1.54-0.14c2.24,0.98,2.24,4.21,0.98,6.73c-0.98,1.96-2.95,3.65-4.77,3.93c-4.63,0.7-7.71-2.1-9.12-5.19
		c-4.91-15.85,16.83-22.86,24.83-12.34C194.71,304.09,165.81,328.35,146.46,316.99 M91.05,333.4c1.96,2.81,8.14,8.14,7.99,10.94
		c0,3.09-9.68,8.98-12.06,9.82c-1.54,0.56-5.47,1.4-6.59,1.12c-2.1-0.42-5.75-6.31-7.71-8.7c-2.66-3.37-4.49-6.45-7.29-9.12
		c-7.85-7.43-17.11-11.08-26.79-15.15c7.57,0.56,15.01-1.4,20.76-6.03c4.49-3.65,9.82-12.06,9.26-18.09
		c0.56-0.14,0.28-0.14,0.7-0.14C73.52,312.78,82.78,321.76,91.05,333.4 M54.87,309.56c-2.81,5.33-10.66,5.75-13.18,0
		c3.93,0.56,8.7-0.7,9.82-4.07C53.46,306.05,53.88,308.16,54.87,309.56 M23.87,304.93c0.14-9.96,8.42-19.36,16.13-21.6
		c-3.65,6.17-15.57,17.95-9.54,28.05c6.59,11.08,27.63,2.81,30.72-7.29c4.77-15.71-18.65-11.92-17.11-0.7
		c1.82,1.96,5.19-2.81,6.87,0c0.84,4.91-8.98,7.29-12.48,3.65c-0.28-6.31,3.51-13.04,7.71-16.41c6.45-5.33,19.92-6.17,21.18,4.77
		c1.4,12.62-10.52,23.56-22.72,25.25C32.7,322.04,23.59,315.59,23.87,304.93 M153.89,302.97c0.42,0.14,0.84,0.14,1.26,0.28
		C154.73,303.25,154.31,303.11,153.89,302.97 M177.31,289.22c1.4,0.7,1.82,3.93,1.54,5.47c-1.4,0.84-3.09,1.54-4.91,1.82
		c-0.28-3.09-0.56-3.93-1.82-5.89C174.09,290.34,175.77,289.92,177.31,289.22 M338.33,291.75c-1.54,0.98-2.24,2.66-2.24,5.05
		c-1.54-0.14-2.66-0.84-4.35-0.98c-0.42-2.95,0.56-5.19,1.68-5.75C335.95,289.92,336.51,291.32,338.33,291.75 M458.54,305.63
		c1.54,2.81,4.07,6.17,7.71,5.89c-3.79,3.79-8.84,6.87-12.76,0.7C454.75,309.56,456.85,307.88,458.54,305.63 M321.64,180.1
		c-4.07,0.7-8.7,0.56-10.8-0.28c-0.56-2.38-0.56-3.09,0-4.49c1.96-1.26,8.98-0.7,10.66-0.84
		C320.52,175.89,319.68,178.69,321.64,180.1 M7.74,270.99c0.84-7.01,1.82-13.18,1.12-21.6c19.08,14.45,53.3,3.51,70.55-6.87
		c0.56-10.52,3.09-19.36,7.71-25.95c43.62,7.43,68.87-17.25,90.19-36.89c-0.42,1.68-0.84,2.24-1.12,4.63
		c-1.54,13.61,11.5,18.09,23,14.31c13.18-3.23,27.07-6.45,44.88-7.29c18.79-0.84,34.64,0.84,51.2,4.07
		c15.57,2.95,44.04,13.47,42.36-13.32c1.54,1.12,2.1,1.96,2.95,2.66c2.66,2.38,5.75,5.05,8.84,7.71
		c16.55,16.83,44.46,31.7,75.6,25.95c4.63,6.31,7.01,15.01,7.29,25.53c15.99,11.22,49.93,22.44,70.83,8.42
		c-1.26,4.91,1.26,13.18,0.98,17.11c-2.1,3.65-6.17,5.33-10.24,6.73c-10.94,3.09-21.46-2.95-29.88-5.61
		c-2.81,3.37-4.35,7.99-6.87,11.64c0.42,1.82,2.1,2.66,1.68,4.21c-19.92-4.91-19.36,21.88-26.93,32.54
		c-3.51-4.21-5.33-7.43-11.5-13.18c-0.84-0.56-7.85-5.89-11.36-7.29c-4.07-2.1-12.2-4.07-13.32-4.21
		c-10.66-1.82-21.74,0.7-30.02,4.35c-5.61,2.52-11.92,6.31-16.41,3.23c8.42-5.05,7.01-20.48-4.21-22.86
		c-4.35-0.98-9.26-0.84-13.32,1.68c-7.57,0.14-15.85-2.1-21.88-4.35c-7.15-2.66-10.66-6.03-16.41-2.95
		c-10.24-6.59-31.14-6.03-39.13,2.24c-7.85-7.01-26.93-10.24-36.47-2.52c-7.57-2.52-14.17,2.81-21.18,5.05
		c-3.93,1.26-9.68,1.68-15.01,1.4c-4.07-0.14-8.28-2.24-12.48-1.82c-10.52,0.98-20.34,15.29-8.42,24.12
		c-0.14,0.98-3.37,1.54-4.35,1.26c-6.45-1.68-13.04-6.45-20.06-8.28c-10.66-2.66-24.69-0.98-33.94,3.23
		c-9.26,4.21-16.13,11.08-22.3,17.11c-9.82-7.85-7.29-37.03-29.17-28.47c-1.12-0.98,2.1-3.37,2.95-4.77
		c-2.52-3.93-4.63-8.14-7.01-12.06C37.05,274.77,17.42,277.72,7.74,270.99 M191.48,180.38c0.84-2.1,1.26-4.35-1.12-5.47
		c3.51-0.7,8.7-0.98,11.78-0.14c0.7,2.1,0.56,4.63-0.42,5.61C198.07,180.1,194.14,180.94,191.48,180.38 M27.51,230.73
		c2.1,1.82,8.14,1.54,11.64,0.42c0,2.52-1.26,2.81-1.26,5.47c-3.93,0.56-8.42,1.26-11.22-0.28
		C26.95,234.52,27.51,232.98,27.51,230.73 M4.09,228.91c-0.28-2.95,5.33-7.29,9.82-8.42c10.52-2.66,21.88,1.4,25.95,6.17
		c-0.7,4.63-10.66,5.61-12.48,1.12c0.56-2.81,4.07-0.56,4.77-0.7c-3.23-7.43-30.44-2.66-18.23,6.59
		c11.78,8.98,37.03,3.23,49.37-2.95c2.24-11.92,7.57-22.58,14.31-31c35.07,8.98,62-9.26,79.95-27.35
		c9.4-9.4,22.58-21.18,40.25-12.34c4.77,2.38,10.38,8.42,10.94,15.29c0.7,8.98-6.87,20.34-16.13,22.3
		c-6.17,1.26-12.62-1.82-14.59-7.71c-2.1-6.03,1.4-17.39,9.82-15.29c1.68,0.42,3.65,2.52,2.52,5.05c-2.24,2.81-4.07,2.24-5.05-0.42
		c-6.73,4.21-1.68,15.15,7.99,13.18c6.17-1.26,12.62-11.78,9.54-20.48c-2.38-6.73-11.22-12.9-20.76-10.94
		c-12.34,2.52-22.58,15.85-32.54,23.42c-18.23,13.89-39.55,25.67-69.43,19.64c-8.42,6.03-10.38,18.94-12.76,29.88
		c-6.73,2.66-14.45,5.61-24.12,7.29c-9.26,1.68-21.04,2.24-27.77-1.4C13.21,238.73,4.37,232.41,4.09,228.91 M312.81,158.92
		c0.42,0.56-2.38,1.82-3.65,2.95c-2.95,2.95-6.59,7.99-6.73,13.89c-0.28,10.1,6.73,17.11,12.9,21.74
		c-18.23-4.07-38.57-8.7-58.35-8.42c-22.3,0.42-36.75,2.1-56.1,7.01c6.87-5.33,11.22-12.76,8.98-23.14
		c-1.54-7.57-7.01-11.92-12.62-15.99C233,164.11,275.07,165.65,312.81,158.92 M509.03,236.62c1.12-3.09,3.23-6.59,2.95-9.12
		c-0.98-7.01-15.15-10.24-24.83-9.82c-4.49,0.14-11.22,1.54-15.01,3.65c-1.96,1.12-5.33,4.07-5.47,5.89
		c-0.14,3.09,3.65,3.93,2.95,8.42c-7.29-0.14-13.61-1.4-17.95-4.77c-2.1-14.31-6.45-26.51-14.59-34.64
		c-21.74,5.89-41.1,2.81-55.96-7.29c-6.87-4.77-12.62-10.94-18.94-16.41c-6.45-5.61-13.18-11.92-19.78-15.71
		c-2.52-1.4-6.31-3.09-8.84-3.65c-10.38-2.38-20.06,1.4-28.05,2.95c-26.79,5.19-59.47,5.47-87.38,1.12
		c-11.22-1.82-22.3-4.63-33.24-5.05c-13.75-0.56-23.98,10.8-31.42,18.23c-17.67,17.67-41.94,35.63-77.84,24.83
		c-7.29,9.54-12.06,21.6-16.83,33.52c-5.33,1.68-11.08,4.77-16.83,4.77c6.17-9.68-6.87-14.87-16.41-15.71
		c-10.8-0.98-24.83,2.24-25.53,9.82c-0.28,3.23,2.24,7.85,3.23,12.34c3.09,13.04,2.52,28.47-2.24,38.99
		c3.65,7.85,12.2,12.48,23.7,11.36c-2.1,3.79-5.19,9.26-4.77,15.99c0.98,15.01,13.18,16.41,25.25,21.88
		c11.08,5.05,20.9,12.48,27.07,20.76c1.96,2.66,3.79,8.28,6.59,9.12c2.1,0.7,6.73-0.7,8.84-1.4c3.37-1.4,14.87-8.42,14.59-12.34
		c-0.14-1.54-4.07-4.35-6.17-6.87c-2.1-2.52-5.47-5.47-5.47-7.71c0-2.66,5.89-8.28,6.87-9.12c3.79-3.09,13.61-8.84,19.78-9.82
		c13.04-1.96,19.64,4.63,27.77,8.7c10.38,5.19,24.69,3.51,32.54-2.95c4.49-3.79,7.15-8.98,11.64-12.06c2.24-1.4,4.91-3.09,7.57-4.35
		s5.05-2.38,7.71-3.23c4.21-1.4,9.4-2.24,16.13-2.66c2.95-0.14,1.82-4.49,4.35-6.45c2.81-2.24,7.43-2.66,10.66-2.52
		c7.99,0.28,14.31,5.89,19.78,10.24c6.17-6.31,19.36-14.31,31.42-8.14c0.28,2.95,1.68,5.47,3.37,6.45
		c3.37,0.56,7.01,0.42,11.22,1.12c11.22,1.96,21.32,10.38,28.47,16.83c6.17,5.47,12.62,11.64,24.83,8.7
		c12.62-2.95,20.76-12.9,37.31-12.34c11.08,0.42,15.43,6.31,20.9,12.34c3.51,3.79,7.29,7.43,9.82,11.36
		c-3.65,5.05-11.36,8.14-11.64,11.36c-0.14,2.81,3.93,8.42,5.89,10.52c1.96,2.24,7.01,6.59,9.82,6.17c1.68-0.14,4.21-3.65,6.17-5.89
		c5.89-6.31,13.04-13.32,20.06-17.11c4.63-2.52,10.1-4.49,15.01-6.87c5.33-2.52,11.36-4.35,15.29-6.87
		c7.71-5.19,10.94-22.3,4.77-29.6c6.45-0.56,14.73-4.77,18.65-9.12c1.4-1.54,3.51-4.49,3.65-6.17c0.14-1.96-2.1-6.73-2.52-8.7
		C505.94,258.78,506.08,245.04,509.03,236.62"/>
	<path id="XMLID_27_" class="st0" d="M282.65,211.24c-1.26,1.12-2.52,2.52-3.79,3.51c-1.26,0.84-2.52,1.54-3.79,2.38
		c0.42,0.84,0,0.42,1.12,1.26c1.54,1.12,0.7,7.01,0.56,9.4c-0.14,2.38-0.7,1.26-0.84,1.4c-0.56-0.28-7.43-10.52-7.71-11.78
		c-0.28-0.98,0.56-1.4,0.98-1.82c0.14-0.14,1.4-0.84,0.56-1.12c-2.1-0.42-10.66-1.12-13.04-1.12c0,0.14-0.7,0.42-0.14,0.7
		c1.54,1.12,3.09,2.95,2.95,4.07c-0.28,4.35-0.56,19.92-2.24,21.46c-0.42,0.42-1.82,0.7-2.24,0.98c-0.28,0.28,0,0.42-0.14,0.7
		c2.24,1.4,6.03,6.87,6.73,8.98c0.28,0,0.7,0.14,0.98-0.42c1.26-14.87,2.1-25.39,2.1-25.39s0.14-0.98,0.7-0.28
		c0.42,0.28,8.98,12.76,10.1,14.45c0.84,1.4-1.82,3.23-3.23,3.93c-0.42,0.42,0.42,0.7,0.42,0.56c9.68-0.14,25.39,2.24,39.41,3.65
		c0.84,0.14,1.96,0.14,2.38,0.14c0.42,0,0.7-0.7,0.56-0.98c-1.54-2.66-4.35-6.59-5.47-8.14c-0.7-0.56-0.84,0.14-0.84,0.14
		c-0.7,0.84-1.12,2.52-1.68,2.66c-0.42,0.42-11.22-0.98-11.78-1.54c-0.28-0.7,0.28-5.47,0.98-6.03c0.7-0.42,1.4-0.14,1.54-0.14
		c2.38,0.14,4.49,0.28,5.89,1.26c0.7,0.56,1.12,1.4,1.54,2.24c0.28,0,0.56,0.42,0.7-0.28c0.7-1.54,1.12-7.85,1.12-9.82
		c0-0.56-0.56-0.7-0.56-0.7s-1.4,1.68-2.52,2.1c-0.7,0.42-6.31,0.98-7.15-0.42c-0.42-1.4,0.28-5.75,0.84-6.03
		c0.42-0.28,8.42,0.7,10.38,1.26c1.54,0.42,0.7,2.95,1.68,2.95s7.01-5.47,7.71-6.17c0.28-0.28-0.14-0.98-0.56-0.98
		c-2.38-0.42-26.09-3.37-27.49-3.23c-0.56,0.14-0.14,0.7-0.14,0.7s2.1,1.82,2.1,3.23c-0.14,2.38-0.56,14.45-2.24,20.62
		c-0.28,1.12-3.09,3.37-4.91,2.95c-0.84-0.28-2.1-2.1-2.38-3.37c0.14-2.24,1.68-27.91,1.68-27.91S282.93,211.38,282.65,211.24"/>
	<path id="XMLID_28_" class="st0" d="M318.98,218.67c-0.14,0.28-0.42,0.14-0.28,0.7c0.14,0.56,1.68,1.4,2.81,4.63
		c0.42,1.82,2.66,18.09,2.66,19.92c0,2.24-0.14,2.24-1.26,2.81c-0.98,0.56-1.26,0.14-1.54,1.26c3.37,0.7,12.06,2.66,14.87,3.23
		c0.84-1.26-1.82-1.54-0.98-4.35c0.42-0.84,9.12-13.75,10.1-14.45c0.84-0.7,4.07-0.28,3.79-0.98c0.84-0.42-1.4-2.38-1.96-5.19
		s-0.56-4.77-0.7-6.17c0,0-0.7,0.28-0.7,0.14c-2.1,2.81-14.59,21.88-14.59,21.88s-0.84,0.42-0.84-0.28
		c-0.28-1.68-2.38-16.55-2.1-17.95c0.28-1.4,1.68-1.54,2.66-2.38c0,0-0.14-0.28-0.14-0.56
		C329.36,220.49,323.04,219.23,318.98,218.67"/>
	<path id="XMLID_29_" class="st0" d="M112.79,243.07c-3.65,1.26-5.75,2.52-10.8,4.49c0.14-0.14-0.28,0.42-0.42,0.56
		c0.42,0.56,3.79,0.56,4.63,1.82c0.84,1.26,7.71,17.11,8.14,18.94c0.42,1.82-0.98,2.81-1.54,4.21c0,0-0.42,0.7,0,0.7
		c0.42-0.14,10.8-4.07,11.22-4.49c0.42-0.42-0.14-0.56-0.28-0.7c0.28,0.14-2.1,0.14-3.65-1.68c-1.26-1.54-7.85-17.39-8.42-19.36
		c0-1.54,0.84-2.95,1.26-3.79C113.35,243.36,113.35,242.93,112.79,243.07"/>
	<path id="XMLID_30_" class="st0" d="M98.07,250.09c0,0-0.98,0.84-1.54,0.98c-1.54,0.7-3.51,0.7-5.19,1.12
		c-5.05,1.12-9.68,2.95-10.94,7.85c-0.7,2.52-0.14,4.63,0.84,6.31c0.98,1.68,2.38,2.95,4.63,3.37c3.51,0.7,7.29-0.42,10.52-0.98
		c2.81-0.56,5.61-0.7,6.31,1.54c0.98,3.79-6.03,7.71-9.54,5.61c-1.12-0.7-1.82-2.24-2.38-3.23c-0.14-0.14-0.42,0-0.42,0
		c0,0.14-1.82,4.77-2.66,11.36c0.14,0,0.14,0,0.56-0.14c0.42-0.14,2.52-1.4,4.07-1.68c7.29-1.4,13.18-1.96,15.99-7.85
		c0.84-1.82,0.98-4.77,0.14-6.87c-1.12-2.66-2.95-4.07-6.87-4.91c-3.65-0.7-5.75,1.68-14.03,1.26c-3.79-2.38,1.68-5.89,0.14-4.63
		c0.7-0.56,3.51-1.96,4.77-1.82c1.54,0.14,2.81,2.52,3.23,3.09c0.42,0.56,0.56,0.14,0.56,0c0.84-1.96,2.38-10.52,2.38-10.52
		L98.07,250.09"/>
	<path id="XMLID_35_" class="st0" d="M230.05,220.49c0.98,0.42,3.09,8.14,2.81,9.26c-0.28,0.98-8.42,1.82-9.12,0.98
		c-0.56-1.12,0.14-9.26,0.98-9.68C225.56,220.77,228.37,220.35,230.05,220.49 M235.94,214.88c-8.42,1.12-11.08,1.54-19.92,2.52
		c-0.98,0.56,0.56,1.26,0.98,1.54c0.56,0.56,1.54,1.54,1.54,2.66c0,1.26-0.42,13.75-1.26,19.22c-0.28,1.12-1.12,2.95-2.1,3.51
		c-3.09,1.54-6.03-2.52-7.15-3.79c-0.28-0.42-2.24-2.66-2.38-2.95c-0.28-1.12,2.24-3.51,2.66-4.35c3.09-5.47,0.98-10.94-3.37-13.47
		c-2.66-1.54-6.87-2.24-10.66-1.26c-1.68,0.42-3.23,1.26-4.91,1.68c-0.56-0.84-0.7-1.82-1.12-2.95c-0.14-0.28-0.42-0.14-0.42-0.14
		c-2.38,3.37-3.79,5.19-6.17,7.01l-0.42,0.7l0.14,0.42c0.28,0.42,1.12,0.56,1.54,0.98c0.42,0.28,1.12,0.84,1.26,1.4
		c0.56,1.68,3.09,14.31,3.37,19.36c-1.82,2.81-3.23,3.51-5.47,3.23c-3.51-0.56-9.26-8.7-8.28-6.59c0.98-1.26,2.38-2.95,2.95-4.63
		c1.96-4.77,0.14-9.4-2.95-11.64c-3.51-2.52-9.26-2.66-13.61-0.84c-0.7,0.28-2.66,1.82-3.51,1.68c-0.84-0.14-0.84-1.96-1.26-2.52
		c-0.28-0.42-0.7-0.42-0.84-0.14c-1.26,1.12-2.1,4.63-5.75,7.71v0.42c1.12,0.56,2.52,0.84,3.09,1.82c0.7,1.26,4.91,15.85,5.19,18.51
		c0.14,1.26-1.12,2.81-1.82,3.37c-0.28,0.28-0.84,0.56-1.4,0.56c-0.7-0.28-1.4-0.84-1.82-1.12c-1.26-0.7-2.52-1.4-3.79-2.1
		c-0.84-0.42-1.68-1.12-2.66-1.54c-1.96-0.84-0.42,2.52-1.54,3.51c-0.7,0.56-9.82,3.93-10.8,3.65c-0.14,0-0.56-0.42-0.7-0.56
		c-0.84-1.82-2.1-4.91-0.98-5.75c0.7-0.42,1.54-0.42,2.38-0.7c0.98-0.42,2.38-1.12,3.79-0.98c1.26,0.14,3.09,1.82,3.37,0.98
		c-0.98-4.35-1.82-6.59-3.09-9.4c-0.28-0.56-0.14-0.42-0.7-0.7c-0.98,2.24-0.98,3.09-3.79,4.49c-0.42,0.28-3.93,1.26-4.35,1.26
		c-0.7-0.14-1.96-3.79-2.1-4.63c-0.28-1.4,0.56-1.54,1.4-1.96c2.24-0.98,4.63-1.82,7.15-2.38c0.56-0.14,1.26-0.42,1.96-0.28
		c0.7,0.14,1.4,1.82,2.38,1.96c0.98-1.4,1.82-3.09,2.52-4.63c0.56-1.4,1.26-2.81,1.54-4.49c-0.14-0.14-0.28-0.42-0.56-0.42
		c-1.12,0.14-2.1,0.56-2.81,0.84c-4.35,1.4-8.7,2.81-12.9,4.21c-3.79,1.26-7.57,2.52-11.22,3.93c0.14,0.28,0,0.42,0.14,0.56
		c0.28,0.28,0.7,0.14,1.12,0.28c0.98,0.42,2.1,0.84,2.95,2.1s6.31,17.11,6.87,19.92c-0.7,3.09-2.38,2.81-2.24,4.21
		c0.42,0.98,9.4-3.51,32.68-10.52c2.24-0.7,4.63-1.26,6.87-1.82c1.12-0.28,1.96-0.42,2.81-0.98c-0.28-0.14,0-0.28-0.42-0.42
		c-3.37-1.68-4.35-2.24-5.33-6.31c-0.14-0.42-0.28-1.68,0.28-1.82c0.28-0.14,5.61-0.56,5.89-0.42c-0.28-0.14,7.85,7.57,11.64,12.9
		c0.7,0.7,1.4,0.98,1.54-0.84c0-1.82,1.68-6.31,2.66-7.01s7.71-1.26,14.03-2.52c0-0.14,0-0.28,0-0.42c-0.14-0.28-1.82-0.84-2.1-0.98
		c-1.26-0.7-2.24-1.82-2.66-3.37c-0.28-0.84-0.84-3.37-0.28-4.07l0.14-0.28c0.28-0.14,4.63,0.14,5.89,0
		c6.17,6.59,9.54,12.76,10.66,13.75c0.84,0.7,1.12-0.14,1.12-0.28c0.98-1.82,2.1-6.03,3.23-6.59c2.24-0.42,9.96-0.98,11.36-1.54
		c0.42-0.7,0.14-0.42-0.98-0.98c-1.12-0.7-1.54-3.37-1.54-3.51c0-0.7,0.14-2.52,0.84-2.95c0.56-0.42,8.7-1.4,10.52-1.12
		c0.7,0.28,1.96,3.37,1.54,4.63c-0.42,1.54-1.82,2.66-0.98,2.66c1.54,0.14,6.59-0.84,9.12-0.98c0.84,0,0.28-0.42-1.12-2.24
		c-2.95-3.79-6.59-17.53-6.73-21.74c0-0.7,0.98-1.54,1.26-2.24C238.05,215.02,237.2,214.74,235.94,214.88 M165.39,230.45
		c3.37-0.28,5.61,0.98,5.89,3.79c0.14,0.84,0.14,1.82-0.14,2.38c-0.84,1.96-3.65,3.65-6.17,3.93c-1.54,0.14-2.81-0.28-3.79-0.7
		c-3.09-1.4-2.95-5.33-0.56-7.43C161.74,231.43,163.71,230.59,165.39,230.45 M197.79,223.3c3.93-0.14,7.15,3.09,5.05,7.01
		c-1.54,2.81-7.71,4.49-10.8,1.82c-2.24-1.96-1.4-5.47,0.56-6.87C193.86,224.42,195.83,223.44,197.79,223.3"/>
	<path id="XMLID_38_" class="st0" d="M354.04,227.65c-0.28,0-0.42,0.42-0.42,0.42s1.68,2.38,1.26,3.93
		c-0.42,1.54-8.7,17.11-9.4,17.81c-0.7,0.84-2.66,2.38-3.79,2.52c-0.42,0.14-0.56,0.42-0.14,0.56c1.68,0.56,7.85,2.52,9.96,3.23
		c0.56,0.14,0.42-0.56,0.42-0.56s-0.7-1.54-0.98-2.38c-0.28-0.84,1.26-4.77,2.95-4.91c0.98,0.28,9.4,2.66,9.82,3.37
		c0.42,0.7,0.42,2.81-0.42,4.91c-0.14,0.42-1.54,1.12-2.1,1.26c-0.42,0.14-0.42,0.7-0.42,0.7l9.4,2.81c0,0,0.56,0.14,0.28-0.42
		c-0.42-0.98-0.56-2.52-1.12-3.65c-0.84-2.1,1.54-17.25,2.38-19.64c0.56-1.68,1.96-2.52,2.95-2.95c0.42-0.14,0.28-0.56,0-0.7
		C372.84,232.98,354.32,227.51,354.04,227.65 M366.24,236.48c0.28,0.98-0.98,8.7-1.68,9.26c-0.7,0.7-8.42-1.54-8.84-2.66
		c-0.42-0.84,3.37-7.29,4.21-8.56C361.62,233.96,365.26,235.22,366.24,236.48"/>
	<path id="XMLID_41_" class="st0" d="M389.81,235.22c-3.93,1.96-6.59,2.66-8.98,3.23c-0.56,0.56,1.54,1.82,1.12,3.37
		c0.14,1.68-4.63,15.15-5.75,16.69c-0.42,0.56-2.52,2.95-3.79,3.23c-0.56,0.42,0.56,0.98,0.7,0.98c5.47,1.96,14.59,5.89,18.37,5.33
		c7.85-0.14,11.78-8.98,12.2-10.24c0.7-1.96,2.52-8.42-0.98-13.04c-2.24-2.95-5.47-6.45-11.92-5.75
		C388.55,239.15,391.35,235.5,389.81,235.22 M386.86,247c2.24-3.37,6.45-3.79,9.82-0.56c1.4,1.26,2.38,4.77,1.82,6.87
		c-1.12,3.93-3.51,8.42-6.87,9.12c-3.23,0.7-7.43-0.56-9.4-2.38C382.09,258.92,385.46,250.23,386.86,247"/>
	<path id="XMLID_44_" class="st0" d="M413.37,247.28c0,0.14-0.42,0.14-0.14,0.7c0.42,1.4,0.98,2.1,0.42,3.51
		c-0.42,1.26-10.66,15.99-11.92,16.83c-0.84,0.7-3.09,1.68-3.51,1.82c-0.56,0.14-0.42,0.56-0.42,0.7c3.65,1.54,8.7,3.65,9.54,3.93
		c0.42,0.14,0.7-0.42,0.14-1.12c-1.26-2.52,1.68-5.19,2.52-5.75c1.54,0,8.56,2.66,10.1,4.77c0,0.98-0.28,4.77-2.66,5.33
		c-1.12,0.28-1.26,0.7-0.7,0.98c0.42,0.28,6.31,2.81,8.7,3.65c0,0,0.7,0.14,0.14-0.7c-0.56-0.7-0.42-2.24-0.7-3.93
		c-0.14-1.68,3.65-17.11,5.19-19.36c0.98-1.4,2.24-1.96,2.95-2.1c0.42-0.14,0.28-0.42,0.28-0.56
		C432.73,255.42,414.92,247.84,413.37,247.28 M419.26,254.58c1.54,0.28,3.79,0.98,5.05,2.24c0.7,0.98-1.96,8.84-2.66,9.68
		c-1.82-0.14-7.71-3.23-8.28-3.51C413.65,261.17,418.14,254.58,419.26,254.58"/>
	<path id="XMLID_47_" class="st0" d="M434.97,265.94c2.1,1.4,5.33,0.98,6.45-1.4c0.98-1.96,0.28-5.05-1.68-6.03
		c-2.66-1.26-4.91-0.56-6.17,1.54C432.45,261.87,433.15,264.82,434.97,265.94 M436.66,258.64c5.75-0.98,6.17,6.87,1.96,7.43
		C432.59,267.06,432.17,259.49,436.66,258.64"/>
	<path id="XMLID_50_" class="st0" d="M437.08,259.2c-0.7,1.54-1.68,2.95-2.38,4.49c0.28,0.14,0.56,0.28,0.84,0.42
		c0.28-0.42,0.7-1.54,0.98-1.82c0.42-0.28,1.12,0.56,1.26,0.7c0.28,1.68-0.7,2.1,0.56,2.66c0.14-0.28,0.42-0.56,0.42-0.84
		c0-0.28,0-0.98,0.14-1.4c0.14-0.7,2.24-0.84,1.26-2.52C439.6,259.91,438.06,259.77,437.08,259.2 M437.64,260.61
		c0.28,0.14,1.26,0.42,1.4,0.7c0.14,0.14,0,0.56,0,0.56c-0.14,0-0.14,0.28-0.28,0.42c-0.7,0.14-1.4-0.42-1.82-0.7
		C437.22,261.17,437.5,260.89,437.64,260.61"/>
</g>
</svg>
