<?xml version="1.0" encoding="UTF-8" standalone="no"?>
<!-- Created with Inkscape (http://www.inkscape.org/) -->
<svg xmlns:inkscape="http://www.inkscape.org/namespaces/inkscape" xmlns:sodipodi="http://sodipodi.sourceforge.net/DTD/sodipodi-0.dtd" xmlns="http://www.w3.org/2000/svg" xmlns:svg="http://www.w3.org/2000/svg" version="1.1" id="svg2" width="542.71997" height="164.93333" viewBox="0 0 542.71997 164.93333" sodipodi:docname="ValcourtBuildingServices_Horizontal_FullColor (2).eps">
  <defs id="defs6"></defs>
  <g id="g8" inkscape:groupmode="layer" inkscape:label="ink_ext_XXXXXX" transform="matrix(1.3333333,0,0,-1.3333333,0,164.93333)">
    <g id="g10" transform="scale(0.1)">
      <path d="m 1360.6,1228.98 h 89.3 l 58.74,-442.515 58.73,442.515 h 81.27 l -85.29,-563.21 h -117.47 l -85.28,563.21" style="fill:#193445;fill-opacity:1;fill-rule:nonzero;stroke:none" id="path12"></path>
      <path d="m 1873.11,852.441 -40.24,284.019 -39.42,-284.019 z m 11.26,-76.437 h -102.18 l -15.3,-110.234 h -82.07 l 91.73,563.21 h 119.89 l 91.72,-563.21 h -88.5 l -15.29,110.234" style="fill:#193445;fill-opacity:1;fill-rule:nonzero;stroke:none" id="path14"></path>
      <path d="m 2070.21,1228.98 h 88.51 V 746.23 h 145.64 v -80.46 h -234.15 v 563.21" style="fill:#193445;fill-opacity:1;fill-rule:nonzero;stroke:none" id="path16"></path>
      <path d="m 2377.56,796.113 v 302.527 c 0,86.9 45.06,138.39 130.34,138.39 85.29,0 130.34,-51.49 130.34,-138.39 v -59.54 h -83.67 v 65.18 c 0,37.01 -17.7,52.29 -44.26,52.29 -26.55,0 -44.25,-15.28 -44.25,-52.29 V 789.676 c 0,-37.012 17.7,-51.492 44.25,-51.492 26.56,0 44.26,14.48 44.26,51.492 v 82.07 h 83.67 v -75.633 c 0,-86.894 -45.05,-138.39 -130.34,-138.39 -85.28,0 -130.34,51.496 -130.34,138.39" style="fill:#193445;fill-opacity:1;fill-rule:nonzero;stroke:none" id="path18"></path>
      <path d="m 2906.16,793.699 v 307.351 c 0,40.24 -17.69,55.52 -45.86,55.52 -28.16,0 -45.86,-15.28 -45.86,-55.52 V 793.699 c 0,-40.222 17.7,-55.515 45.86,-55.515 28.17,0 45.86,15.293 45.86,55.515 z m -180.22,5.637 v 296.094 c 0,90.11 47.47,141.6 134.36,141.6 86.9,0 134.37,-51.49 134.37,-141.6 V 799.336 c 0,-90.117 -47.47,-141.613 -134.37,-141.613 -86.89,0 -134.36,51.496 -134.36,141.613" style="fill:#193445;fill-opacity:1;fill-rule:nonzero;stroke:none" id="path20"></path>
      <path d="m 3091.2,799.336 v 429.644 h 88.51 V 792.898 c 0,-40.234 16.9,-54.714 45.06,-54.714 28.16,0 45.05,14.48 45.05,54.714 v 436.082 h 85.3 V 799.336 c 0,-90.117 -45.06,-141.613 -131.96,-141.613 -86.9,0 -131.96,51.496 -131.96,141.613" style="fill:#193445;fill-opacity:1;fill-rule:nonzero;stroke:none" id="path22"></path>
      <path d="m 3578.78,987.605 c 32.99,0 53.1,14.485 53.1,59.545 v 43.44 c 0,40.24 -13.68,57.93 -45.05,57.93 h -40.24 V 987.605 Z m -120.69,241.375 h 131.15 c 91.72,0 131.14,-42.63 131.14,-129.53 v -34.6 c 0,-57.93 -18.5,-94.94 -57.93,-111.034 v -1.609 c 44.26,-13.684 58.74,-55.519 58.74,-119.082 V 734.16 c 0,-27.355 0.8,-47.472 9.65,-68.39 h -90.11 c -4.83,14.484 -8.04,23.332 -8.04,69.199 v 102.988 c 0,52.297 -15.3,69.191 -55.52,69.191 h -30.58 V 665.77 h -88.5 v 563.21" style="fill:#193445;fill-opacity:1;fill-rule:nonzero;stroke:none" id="path24"></path>
      <path d="m 3889.36,1148.52 h -92.53 v 80.46 h 273.55 v -80.46 h -92.52 V 665.77 h -88.5 v 482.75" style="fill:#193445;fill-opacity:1;fill-rule:nonzero;stroke:none" id="path26"></path>
      <path d="m 1435.11,360.836 c 7.64,0 14.21,2.769 19.68,8.328 5.35,5.477 8.01,12.188 8.01,20.117 0,7.93 -2.66,14.707 -8.01,20.332 -5.41,5.625 -11.97,8.438 -19.68,8.438 h -52.02 v -57.215 z m -5.08,125.789 h -46.94 v -53.977 h 46.94 c 7.21,0.079 13.37,2.707 18.5,7.903 5.11,5.183 7.67,11.535 7.67,19.035 0,7.5 -2.56,13.844 -7.67,19.031 -5.13,5.344 -11.29,8.008 -18.5,8.008 z m 5.08,-140.391 h -67.49 v 155.098 h 62.41 c 11.53,0 21.38,-4.113 29.52,-12.324 8.16,-8.223 12.19,-18 12.12,-29.317 0,-14.558 -6.05,-25.597 -18.17,-33.097 7.5,-3.242 13.48,-8.145 17.96,-14.707 4.47,-6.563 6.77,-14.063 6.92,-22.5 0,-12.039 -4.22,-22.246 -12.66,-30.606 -8.43,-8.367 -18.64,-12.547 -30.61,-12.547" style="fill:#193445;fill-opacity:1;fill-rule:nonzero;stroke:none" id="path28"></path>
      <path d="m 1645.28,358.617 c -10.64,-10.058 -24.52,-15.09 -41.65,-15.09 -17.12,0 -31,5.032 -41.64,15.09 -10.63,10.059 -15.95,23.485 -15.95,40.293 v 102.422 h 15.58 V 398.91 c 0,-12.402 3.69,-22.219 11.09,-29.426 7.39,-7.207 17.71,-10.808 30.98,-10.808 13.26,0 23.6,3.601 30.99,10.808 7.39,7.207 11.08,17.024 11.08,29.426 v 102.422 h 15.47 V 398.91 c 0,-16.808 -5.31,-30.234 -15.95,-40.293" style="fill:#193445;fill-opacity:1;fill-rule:nonzero;stroke:none" id="path30"></path>
      <path d="m 1738.96,501.332 h 15.46 V 346.234 h -15.46 v 155.098" style="fill:#193445;fill-opacity:1;fill-rule:nonzero;stroke:none" id="path32"></path>
      <path d="m 1849.89,360.836 h 70.96 v -14.602 h -86.43 v 155.098 h 15.47 V 360.836" style="fill:#193445;fill-opacity:1;fill-rule:nonzero;stroke:none" id="path34"></path>
      <path d="m 2047.25,360.836 c 17.02,0 30.93,6.051 41.74,18.172 10.82,12.109 16.23,27.043 16.23,44.773 0,17.735 -5.43,32.649 -16.27,44.727 -10.86,12.074 -24.76,18.117 -41.7,18.117 H 2002.9 V 360.836 Z m 0,140.496 c 21.12,0 38.59,-7.5 52.4,-22.5 13.81,-14.988 20.71,-33.352 20.71,-55.051 0,-21.695 -6.9,-40.058 -20.71,-55.047 -13.81,-15 -31.28,-22.5 -52.4,-22.5 h -59.82 v 155.098 h 59.82" style="fill:#193445;fill-opacity:1;fill-rule:nonzero;stroke:none" id="path36"></path>
      <path d="m 2191.38,501.332 h 15.47 V 346.234 h -15.47 v 155.098" style="fill:#193445;fill-opacity:1;fill-rule:nonzero;stroke:none" id="path38"></path>
      <path d="m 2386.46,501.332 h 15.58 V 346.234 h -13.31 l -86.42,126.223 V 346.234 h -15.46 v 155.098 h 13.31 l 86.3,-126.328 v 126.328" style="fill:#193445;fill-opacity:1;fill-rule:nonzero;stroke:none" id="path40"></path>
      <path d="m 2630.11,419.992 v -7.996 c 0,-19.18 -6.86,-35.41 -20.56,-48.672 -13.84,-13.273 -32.37,-19.883 -55.59,-19.844 -23.22,0.028 -42.5,7.821 -57.87,23.36 -15.35,15.539 -23.03,34.519 -23.03,56.941 0,22.426 7.68,41.391 23.03,56.895 15.37,15.5 34.8,23.254 58.3,23.254 14.35,0 27.49,-3.457 39.43,-10.379 11.93,-6.926 21.14,-16.156 27.64,-27.699 l -13.75,-7.997 c -4.9,9.446 -12.14,16.985 -21.73,22.61 -9.59,5.625 -20.12,8.433 -31.59,8.433 -19.32,0 -35.13,-6.277 -47.43,-18.828 -12.29,-12.539 -18.43,-27.976 -18.43,-46.289 0,-18.308 6.12,-33.738 18.38,-46.289 12.19,-12.547 27.51,-18.816 45.97,-18.816 18.46,0 32.91,4.375 43.37,13.133 10.46,8.761 16.41,19.961 17.85,33.586 h -61.54 v 14.597 h 77.55" style="fill:#193445;fill-opacity:1;fill-rule:nonzero;stroke:none" id="path42"></path>
      <path d="m 2887.61,355.426 c -9.62,-7.934 -21.91,-11.899 -36.83,-11.899 -14.92,0 -27.43,3.371 -37.53,10.118 -10.1,6.738 -17.13,16.027 -21.09,27.855 l 13.3,7.676 c 2.81,-9.59 7.99,-17.074 15.53,-22.446 7.53,-5.371 17.12,-8.054 28.77,-8.054 11.64,0 20.67,2.539 27.09,7.617 6.41,5.09 9.62,11.777 9.62,20.066 0,8.293 -2.93,14.493 -8.81,18.606 -5.88,4.109 -16.24,8.613 -31.1,13.515 -14.85,4.903 -24.87,8.946 -30.07,12.118 -11.82,7.062 -17.73,17.246 -17.73,30.558 0,13.301 4.58,23.75 13.73,31.367 9.16,7.598 20.14,11.407 32.94,11.407 12.79,0 23.61,-3.133 32.44,-9.414 8.84,-6.27 15.42,-14.278 19.75,-24.004 l -13.09,-7.356 c -7.07,17.16 -19.76,25.742 -38.07,25.742 -9.59,0 -17.35,-2.363 -23.26,-7.089 -5.91,-4.723 -8.86,-11.102 -8.86,-19.137 0,-8.047 2.71,-14.043 8.16,-18.012 5.44,-3.972 15.5,-8.328 30.18,-13.086 14.66,-4.765 23.7,-8.191 27.09,-10.281 8.94,-5.547 14.57,-10.313 16.87,-14.277 3.6,-6.34 5.41,-13.008 5.41,-20.008 0,-13.117 -4.81,-23.645 -14.44,-31.582" style="fill:#193445;fill-opacity:1;fill-rule:nonzero;stroke:none" id="path44"></path>
      <path d="m 2987.45,360.836 h 75.39 v -14.602 h -90.86 v 155.098 h 89.67 v -14.707 h -74.2 v -54.832 h 68.68 v -14.719 h -68.68 v -56.238" style="fill:#193445;fill-opacity:1;fill-rule:nonzero;stroke:none" id="path46"></path>
      <path d="m 3149.33,486.625 v -63.711 h 46.51 c 8.57,0 15.9,3.145 21.95,9.414 6.06,6.27 9.09,13.809 9.09,22.606 0,8.8 -3.03,16.281 -9.09,22.445 -6.05,6.16 -13.38,9.246 -21.95,9.246 z m 0,-78.418 v -61.973 h -15.47 v 155.098 h 61.98 c 12.83,0 23.79,-4.539 32.88,-13.621 9.08,-9.094 13.62,-19.453 13.62,-31.106 0,-11.64 -3.13,-21.574 -9.41,-29.796 -6.27,-8.219 -14.27,-13.727 -24,-16.543 l 37.85,-64.032 h -17.74 l -36.24,61.973 h -43.47" style="fill:#193445;fill-opacity:1;fill-rule:nonzero;stroke:none" id="path48"></path>
      <path d="m 3352.95,346.234 -57.21,155.098 h 16.87 l 48.35,-134.551 48.24,134.551 h 16.86 l -57.2,-155.098 h -15.91" style="fill:#193445;fill-opacity:1;fill-rule:nonzero;stroke:none" id="path50"></path>
      <path d="m 3490.49,501.332 h 15.47 V 346.234 h -15.47 v 155.098" style="fill:#193445;fill-opacity:1;fill-rule:nonzero;stroke:none" id="path52"></path>
      <path d="m 3658.43,343.527 c -23.51,0 -42.94,7.774 -58.3,23.313 -15.35,15.539 -23.04,34.519 -23.04,56.941 0,22.426 7.69,41.391 23.04,56.895 15.36,15.5 34.79,23.254 58.3,23.254 14.34,0 27.49,-3.426 39.42,-10.274 11.94,-6.855 21.14,-16.113 27.64,-27.804 l -13.74,-7.997 c -4.9,9.446 -12.15,16.985 -21.74,22.61 -9.59,5.625 -20.12,8.433 -31.58,8.433 -19.33,0 -35.14,-6.277 -47.43,-18.828 -12.3,-12.539 -18.44,-27.976 -18.44,-46.289 0,-18.308 6.12,-33.738 18.39,-46.289 12.25,-12.547 28.08,-18.816 47.48,-18.816 11.53,0 22.1,2.793 31.69,8.379 9.59,5.586 16.79,13.105 21.63,22.547 l 13.74,-7.676 c -6.35,-11.676 -15.53,-21.004 -27.53,-27.957 -12,-6.961 -25.19,-10.442 -39.53,-10.442" style="fill:#193445;fill-opacity:1;fill-rule:nonzero;stroke:none" id="path54"></path>
      <path d="m 3810.89,360.836 h 75.39 v -14.602 h -90.86 v 155.098 h 89.67 v -14.707 h -74.2 v -54.832 h 68.68 v -14.719 h -68.68 v -56.238" style="fill:#193445;fill-opacity:1;fill-rule:nonzero;stroke:none" id="path56"></path>
      <path d="m 4043.88,355.426 c -9.62,-7.934 -21.91,-11.899 -36.83,-11.899 -14.92,0 -27.43,3.371 -37.53,10.118 -10.1,6.738 -17.13,16.027 -21.09,27.855 l 13.3,7.676 c 2.81,-9.59 7.99,-17.074 15.53,-22.446 7.53,-5.371 17.12,-8.054 28.77,-8.054 11.64,0 20.67,2.539 27.09,7.617 6.41,5.09 9.62,11.777 9.62,20.066 0,8.293 -2.94,14.493 -8.81,18.606 -5.88,4.109 -16.24,8.613 -31.1,13.515 -14.85,4.903 -24.87,8.946 -30.07,12.118 -11.82,7.062 -17.73,17.246 -17.73,30.558 0,13.301 4.58,23.75 13.73,31.367 9.16,7.598 20.14,11.407 32.94,11.407 12.79,0 23.61,-3.133 32.44,-9.414 8.84,-6.27 15.42,-14.278 19.75,-24.004 l -13.09,-7.356 c -7.07,17.16 -19.76,25.742 -38.08,25.742 -9.59,0 -17.34,-2.363 -23.25,-7.089 -5.92,-4.723 -8.86,-11.102 -8.86,-19.137 0,-8.047 2.71,-14.043 8.16,-18.012 5.44,-3.972 15.5,-8.328 30.18,-13.086 14.66,-4.765 23.7,-8.191 27.09,-10.281 8.94,-5.547 14.57,-10.313 16.87,-14.277 3.6,-6.34 5.41,-13.008 5.41,-20.008 0,-13.117 -4.81,-23.645 -14.44,-31.582" style="fill:#193445;fill-opacity:1;fill-rule:nonzero;stroke:none" id="path58"></path>
      <path d="M 973.766,1233.61 572.148,1032.8 170.531,1233.61 h 231.086 l 170.531,-85.26 170.528,85.26 h 231.09" style="fill:#398bc1;fill-opacity:1;fill-rule:nonzero;stroke:none" id="path60"></path>
      <path d="M 1144.29,1227.81 V 1112.35 L 572.148,826.273 0,1112.35 v 115.46 L 572.148,941.738 1144.29,1227.81" style="fill:#398bc1;fill-opacity:1;fill-rule:nonzero;stroke:none" id="path62"></path>
      <path d="M 1144.29,1021.28 V 905.82 L 572.148,619.746 0,905.82 v 115.46 L 572.148,735.207 1144.29,1021.28" style="fill:#398bc1;fill-opacity:1;fill-rule:nonzero;stroke:none" id="path64"></path>
      <path d="M 1144.29,814.754 V 699.211 L 572.148,413.137 0,699.211 V 814.754 L 572.148,528.68 1144.29,814.754" style="fill:#398bc1;fill-opacity:1;fill-rule:nonzero;stroke:none" id="path66"></path>
      <path d="M 1144.29,608.145 V 492.68 L 572.148,206.609 0,492.68 V 608.145 L 572.148,322.07 1144.29,608.145" style="fill:#398bc1;fill-opacity:1;fill-rule:nonzero;stroke:none" id="path68"></path>
      <path d="M 1144.29,401.613 V 286.07 L 572.148,0 0,286.07 V 401.613 L 572.148,115.539 1144.29,401.613" style="fill:#398bc1;fill-opacity:1;fill-rule:nonzero;stroke:none" id="path70"></path>
    </g>
  </g>
</svg>
