<?xml version="1.0" encoding="UTF-8"?>
<!DOCTYPE svg PUBLIC "-//W3C//DTD SVG 1.1//EN" "http://www.w3.org/Graphics/SVG/1.1/DTD/svg11.dtd">
<!-- Creator: CorelDRAW 2019 (64-Bit) -->
<svg xmlns="http://www.w3.org/2000/svg" xml:space="preserve" width="198.71mm" height="59.4883mm" version="1.1" style="shape-rendering:geometricPrecision; text-rendering:geometricPrecision; image-rendering:optimizeQuality; fill-rule:evenodd; clip-rule:evenodd"
viewBox="0 0 198.6212 59.4618"
 xmlns:xlink="http://www.w3.org/1999/xlink"
 xmlns:xodm="http://www.corel.com/coreldraw/odm/2003">
 <defs>
  <style type="text/css">
   <![CDATA[
    .fil0 {fill:#F40011}
   ]]>
  </style>
 </defs>
 <g id="Layer_x0020_1">
  <metadata id="CorelCorpID_0Corel-Layer"/>
  <g id="_2755552256">
   <g>
    <path class="fil0" d="M64.2244 21.8781l-0.0853 0.0244c-0.0488,0.1949 -0.2436,0.3165 -0.2678,0.548 0,0.073 -0.098,0.1339 -0.1464,0.1945 -0.1702,0.2927 -0.4137,0.5238 -0.6816,0.7063 -0.1706,0.1097 -0.317,0.2193 -0.4752,0.3165 -0.5476,0.3289 -1.1443,0.4872 -1.741,0.6821 -0.7056,0.2311 -1.4121,0.4627 -2.1184,0.7306 -0.7544,0.2797 -1.485,0.6086 -2.2158,0.925 -0.292,0.1339 -0.5966,0.3046 -0.8887,0.4504 -1.0222,0.5358 -2.0332,1.0595 -3.056,1.5952 -0.4017,0.2187 -0.8154,0.4504 -1.2296,0.6816 -0.2186,0.1097 -0.4379,0.2192 -0.6452,0.3407 -0.3284,0.183 -0.6572,0.3774 -0.9863,0.5723 -0.4747,0.2678 -0.9616,0.5356 -1.4487,0.8159 -0.5235,0.304 -1.059,0.6204 -1.583,0.9374 -0.4259,0.2555 -0.852,0.499 -1.2781,0.7544 -0.4137,0.2436 -0.8396,0.5115 -1.2538,0.7794 -0.5843,0.353 -1.1568,0.7187 -1.7286,1.0714 -0.0978,0.061 -0.1705,0.183 -0.2679,0.2315 -0.0979,0.0362 -0.183,0.1215 -0.2678,0.1583 -0.2921,0.0972 -0.5114,0.3164 -0.7675,0.4747 -0.4016,0.2559 -0.7909,0.5481 -1.1811,0.8278 -0.1338,0.0853 -0.2553,0.1705 -0.3406,0.3165 -0.061,0.0977 -0.2193,0.1462 -0.3289,0.2192 -0.1214,0.0854 -0.2678,0.1581 -0.2068,0.3655 0.0243,0.1214 -0.0242,0.2555 -0.0367,0.3894 -0.0119,0.1339 -0.0243,0.2797 -0.0119,0.4136 0,0.061 0.0244,0.122 0.0486,0.2074 -0.0367,0.0604 -0.0853,0.1458 -0.1582,0.2311 0.1825,0.1462 0.0367,0.3165 0.0243,0.4989 0.122,0.0978 0.122,0.2436 0.073,0.4018 -0.0606,0.1707 -0.17,0.3412 0,0.5239 0.0368,0.0486 0,0.1582 -0.134,0.1214 0,0.0611 0,0.122 0.0368,0.1707 0.0853,0.1214 0.0853,0.2436 0.0125,0.3773l0 0.0612c0.1338,0.2434 -0.025,0.4865 0,0.7425 0.0118,0.2436 -0.0367,0.4871 0.0118,0.7426 0.0124,0.0853 0.0124,0.1824 0.0242,0.2802 0.0126,0.0606 0.0612,0.1701 -0.061,0.2193 -0.0361,0.0118 -0.0603,0.0972 0,0.1701 0.0492,0.0853 0.061,0.2193 0.0492,0.3165 -0.0853,0.4017 0,0.7915 -0.0609,1.2052 0,0.1339 -0.0244,0.2804 -0.0244,0.4143 0,0.0972 -0.0487,0.1825 0.0486,0.2678l0 0.061c-0.0728,0.1702 -0.0125,0.3407 -0.0368,0.5234 0,0.1706 0.0243,0.3531 0.0493,0.5481 -0.2803,0.0487 -0.1463,0.3041 -0.1588,0.499 0.0853,0.0367 0.2193,0.061 0.183,0.2312 -0.0492,0 -0.1095,0.0242 -0.195,0.0366 0.0611,0.0855 0.1098,0.1464 0.1826,0.2555l-0.0854 0.0249c0.1826,0.3041 -0.0242,0.5233 -0.1214,0.7787 0.061,0.1339 0.1339,0.3047 0.195,0.4509 0.0486,0.0972 0.0605,0.1701 -0.0493,0.2312 -0.1457,0.0853 -0.158,0.1705 -0.0971,0.3165 0.0486,0.0977 0.0971,0.1824 0.1581,0.2802 -0.0729,0.0243 -0.1338,0.0362 -0.1949,0.0605 0,0.1097 0,0.2193 0.0243,0.3414 0.0611,-0.0369 0.0978,-0.0487 0.1338,-0.0736 0.0368,0.0854 0.061,0.1831 0.0855,0.2803 -0.0363,0.0244 -0.0855,0.0486 -0.1457,0.073 0.036,0.1338 0.17,0.2679 -0.0368,0.4016 0.1096,0.1097 0.2068,0.2074 0.3046,0.3048 -0.0368,0.0853 -0.0854,0.2068 -0.1339,0.3164 0.0605,0.0123 0.1096,0.0242 0.17,0.0367 -0.0605,0.0853 -0.1581,0.1702 0,0.2436l0.0367 0.0486c-0.061,0.1825 0.0973,0.3531 0.0243,0.5476 -0.0243,0 -0.061,-0.0119 -0.1338,-0.0361 0.0729,0.1581 0.0368,0.2797 0,0.4136 -0.0242,0.0609 0.0729,0.1581 0.1096,0.2436 0.0611,-0.0363 0.0973,-0.0612 0.1583,-0.1097 0.0243,0.1219 0.0367,0.2193 0.0485,0.3165 0.0125,0.183 0.0488,0.3654 0.1583,0.5113 0.061,0.0854 0.061,0.1582 0,0.2318 -0.0486,0.0853 -0.1096,0.1581 -0.1701,0.2434 0.0243,0.0119 0.0486,0.0487 0.0974,0.0974 -0.0731,0.0242 -0.1216,0.0485 -0.1828,0.061 0,0.1214 0,0.2554 0.0369,0.3892 0,0.0368 0.0729,0.0855 0.1214,0.1097 0,0 0.061,-0.0485 0.1098,-0.0972 -0.0488,0.1582 0.2796,0.1702 0.1338,0.3894 0.061,0.0366 0.1214,0.0729 0.2194,0.1337 -0.2074,0.0369 -0.2074,0.2193 -0.2317,0.329 0,0.0972 -0.0607,0.1458 -0.1098,0.2068 0.0125,0.1583 0.2927,0.1463 0.1587,0.3407 0.1091,0.0493 0.1827,0.0853 0.2679,0.1339 -0.1096,0.1097 -0.2193,0.2074 -0.1588,0.3774l-0.036 0.0492c-0.1583,0.1458 -0.1583,0.1825 0.036,0.2797l0.0493 0.0487c-0.0853,0.0735 -0.183,0.134 -0.2436,0.2073 -0.061,0.0848 -0.0735,0.1945 -0.134,0.2798 -0.0853,0.1339 -0.1824,0.2679 -0.3046,0.3531 -0.231,0.1706 -0.4988,0.3046 -0.7424,0.4504l-0.9013 0c0,0 -0.073,-0.0368 -0.1093,-0.0487 -0.6694,-0.1581 -1.108,-0.56 -1.2906,-1.2538 -0.1462,-0.5482 -0.2433,-1.0957 -0.2316,-1.668 0,-0.3894 0.0368,-0.7669 0.0491,-1.1569 0.0245,-0.4627 0.0245,-0.925 0.0245,-1.3754 0,-0.183 0,-0.3655 0.0118,-0.5482 0.0125,-0.5232 0.0125,-1.047 0.0729,-1.5584 0.0368,-0.4017 0.0492,-0.7911 0,-1.181 0,-0.0729 0,-0.1583 0,-0.2312 0,-0.1706 0,-0.3289 0,-0.4989 0,-0.2074 0,-0.4266 0,-0.6334 0,-0.3042 0.0734,-0.5968 -0.0119,-0.9008l0 -0.1097c0.1097,-0.0853 0.0853,-0.1824 0.0853,-0.2921l0 -5.5152c0,-0.3898 0.0244,-0.7915 0.0244,-1.1811l0 -0.6085c-0.2803,0.1582 -0.5239,0.2922 -0.7426,0.438 -0.4384,0.3165 -0.8526,0.6453 -1.2786,0.9742 -0.4624,0.365 -0.9132,0.7182 -1.3636,1.0714 -0.2068,0.17 -0.4379,0.3407 -0.6572,0.5114 -0.3656,0.2797 -0.7305,0.5601 -1.0838,0.8521 -0.4018,0.3165 -0.7668,0.6572 -1.1686,0.9742 -0.5482,0.4504 -1.0957,0.8884 -1.6438,1.3392 -0.5601,0.4747 -1.1076,0.9375 -1.68,1.4122 -0.4017,0.3407 -0.8159,0.6696 -1.2297,1.0104 -0.0611,0.0486 -0.1219,0.1221 -0.1826,0.1825 -0.1338,0.1339 -0.2801,0.2803 -0.4259,0.4141 -0.134,0.1459 -0.256,0.3165 -0.4143,0.4505 -0.2436,0.2192 -0.5114,0.4141 -0.755,0.6453 -0.2677,0.2436 -0.5112,0.5113 -0.7668,0.7668 -0.1582,0.1464 -0.3164,0.3046 -0.4745,0.4504 -0.0612,0.0735 -0.1341,0.183 -0.1949,0.2678 -0.0731,0.0978 -0.1583,0.1949 -0.2436,0.2804 -0.1098,0.1097 -0.2193,0.2192 -0.3291,0.3406 -0.4136,0.4385 -0.8277,0.8889 -1.278,1.303 -0.3289,0.2922 -0.5968,0.6329 -0.8765,0.9618 -0.0488,0.0606 -0.1096,0.1097 -0.1583,0.1702 -0.0977,0.1097 -0.1948,0.2074 -0.2921,0.3045 -0.0367,0.0486 -0.0734,0.0854 -0.1097,0.134 -0.329,0.3165 -0.6696,0.6329 -0.9984,0.9499 -0.1951,0.1824 -0.402,0.3649 -0.5844,0.5476 -0.1948,0.1825 -0.3898,0.2921 -0.6697,0.3046 -0.3773,0 -0.7431,0 -1.1198,-0.1464 -0.585,-0.2436 -0.8527,-0.7057 -0.9258,-1.3025 -0.0242,-0.1825 -0.0608,-0.3773 0,-0.56 0.0488,-0.1219 0.0731,-0.2435 0.1465,-0.353 0.1215,-0.1826 0.2554,-0.3651 0.3893,-0.5358 0.499,-0.6209 1.0471,-1.1935 1.6313,-1.7291 0.3289,-0.2921 0.6453,-0.6085 0.9619,-0.9127 0.5357,-0.4995 1.047,-1.0109 1.5827,-1.4855 0.852,-0.755 1.7291,-1.4974 2.5932,-2.2281 0.4384,-0.3774 0.877,-0.7306 1.3149,-1.0957 0.3046,-0.2678 0.5966,-0.5476 0.9012,-0.8153 0.2554,-0.2193 0.5477,-0.4266 0.8155,-0.6334 0.4141,-0.3408 0.8159,-0.6816 1.2296,-1.0105 0.2316,-0.1825 0.4746,-0.3774 0.7182,-0.5599 0.3047,-0.2561 0.6092,-0.4872 0.9132,-0.755 0.1706,-0.1464 0.3531,-0.3047 0.5237,-0.4385 0.3651,-0.2798 0.7303,-0.5233 1.0959,-0.7911 0.5599,-0.4142 1.12,-0.8278 1.6799,-1.242 0.3531,-0.2554 0.7065,-0.499 1.0595,-0.7549 0.3406,-0.2312 0.6696,-0.4867 0.9979,-0.7303 0.5843,-0.4383 1.1568,-0.8887 1.7411,-1.3272 0.4142,-0.3165 0.852,-0.6085 1.3149,-0.9252 0,-0.3046 0,-0.6328 0,-0.9741 0,-0.1945 0,-0.3775 -0.0119,-0.5601 0,-0.0486 -0.0243,-0.1339 -0.0611,-0.1339 -0.061,0 -0.1221,0.0125 -0.158,0.0487 -0.2923,0.1949 -0.5969,0.4017 -0.8891,0.6091l-0.061 0.0243c-0.2067,0.0486 -0.4018,0.0854 -0.5961,0.1825 -0.1705,0.0853 -0.3531,0.1583 -0.5723,0.1339 -0.1951,-0.0243 -0.4142,0.061 -0.621,0.1215 -0.4629,0.0978 -0.9252,0.0978 -1.3636,-0.0606 -0.5482,-0.2074 -1.0104,-0.5357 -1.2296,-1.1448 -0.1583,-0.4623 -0.2436,-0.925 -0.2436,-1.4122 0,-0.621 0.0125,-1.2419 0,-1.8626 0,-0.2191 -0.0486,-0.414 -0.0486,-0.6333 0,-0.1338 0.0361,-0.2678 0.0729,-0.4136 0.0242,-0.2436 0.061,-0.487 0.073,-0.7306 0,-0.4629 0.0853,-0.9375 0.158,-1.4122 0.0736,-0.4871 0.1708,-0.9861 0.3172,-1.4612 0.1582,-0.4989 0.3166,-0.998 0.6204,-1.4365 0.3289,-0.4871 0.6579,-0.9861 1.0227,-1.4612 0.2193,-0.2798 0.5239,-0.4866 0.8279,-0.6697 0.0491,-0.0243 0.1095,-0.0485 0.1463,-0.0847 0.4016,-0.3532 0.9007,-0.451 1.4002,-0.5482 0.1825,-0.0368 0.4018,0.0243 0.5602,0.1097 0.2191,0.1096 0.2435,0.365 0.2191,0.56 0,0.2312 -0.0976,0.4504 -0.1463,0.682 -0.0244,0.1826 -0.1581,0.3042 -0.2192,0.4623 -0.0853,0.1949 -0.2312,0.3289 -0.4018,0.4385 -0.0487,0.0243 -0.0852,0.061 -0.1096,0.0972 -0.1098,0.183 -0.1944,0.3899 -0.3892,0.5358l-0.0245 0.0367c-0.0243,0.2435 -0.2191,0.4018 -0.3045,0.621 -0.0244,0.0487 -0.0611,0.1215 -0.073,0.1949 -0.0243,0.1825 -0.061,0.3526 -0.2068,0.499 -0.0491,0.0611 -0.0735,0.1339 -0.0979,0.2192 -0.061,0.2312 -0.1214,0.4747 -0.1824,0.7183 -0.0243,0.0729 -0.0612,0.1457 -0.0728,0.2193 -0.0368,0.2434 -0.1098,0.4746 -0.0611,0.7182 0,0.0487 0.0485,0.0972 0.0727,0.1458 0.0488,0.1219 0.0488,0.2316 0,0.353 -0.0484,0.0855 -0.0727,0.1951 -0.0853,0.2923 -0.0242,0.2074 -0.0484,0.4142 -0.0604,0.6091 -0.0125,0.1215 0,0.2311 0,0.3526 0,0.0491 0.0243,0.1097 0,0.1462 -0.1463,0.2436 -0.0486,0.4872 -0.0368,0.7424 0,0.134 0,0.2804 0,0.4142 0,0.2679 0.1098,0.5115 0.2312,0.755 0.1221,0.2436 0.3289,0.3894 0.6333,0.3775 0.5476,-0.0249 0.9863,-0.256 1.3635,-0.6453 0.3894,-0.3775 0.5234,-0.8527 0.5968,-1.3392 0.1098,-0.7306 0.1945,-1.4612 0.2922,-2.1918 0.0486,-0.3651 0.0972,-0.7182 0.1215,-1.0833 0.0123,-0.1949 -0.0119,-0.3898 -0.0119,-0.5843l0 -0.061c0.1215,-0.1339 0.0973,-0.3046 0.1096,-0.4628 0.0488,-0.5718 0.0849,-1.1318 0.134,-1.6923 0.0242,-0.3408 0.0604,-0.6815 0.0847,-1.0104 0.0243,-0.365 0.0491,-0.7308 0.0853,-1.0957 0.0244,-0.2679 0.0244,-0.5357 0.1464,-0.7911 0.1701,-0.3655 0.4623,-0.5847 0.8153,-0.755 0.3289,-0.1705 0.6822,-0.1949 1.0352,-0.1462 0.2436,0.0366 0.4867,0.1097 0.633,0.3289 0.0853,0.1338 0.2435,0.2191 0.2553,0.4142 0,0.0604 0.0249,0.1337 0.0249,0.1943 0,0.2074 -0.0249,0.4261 -0.0367,0.6334 0,0.0848 0.0367,0.1701 0.0611,0.2678 0,0.0487 -0.0978,0.0731 -0.0493,0.1826 0.0368,0.0854 0.0125,0.1825 -0.036,0.2922 -0.0488,0.1097 -0.0368,0.2678 0,0.3893 0.036,0.1831 -0.0245,0.3531 0,0.5481 0.0242,0.1707 -0.0731,0.3532 -0.0978,0.5357 -0.0243,0.0612 -0.0731,0.134 0.0247,0.195l0.0243 0.0243c-0.1705,0.2312 -0.1096,0.5114 -0.1339,0.7793 -0.0734,0.7182 -0.1097,1.4366 -0.158,2.1547 -0.0369,0.56 -0.0855,1.1199 -0.1221,1.6799 0,0.134 -0.0611,0.268 -0.0611,0.4017 0.0123,0.3657 -0.0485,0.7308 -0.073,1.0839 0,0.1463 -0.0118,0.2802 0.0368,0.4259 0.0485,0.122 0.0485,0.2679 0.012,0.39 -0.0856,0.231 -0.0606,0.4621 -0.0488,0.6938 0,0.1215 0,0.2311 0,0.3526 -0.0368,0.2317 -0.0853,0.451 -0.061,0.7063 0.0242,0.2312 0,0.4629 0,0.6821 0,0.0486 0.0125,0.0848 0.0242,0.17 0.0856,-0.0485 0.1465,-0.0853 0.2193,-0.1214 0.3413,-0.2316 0.6822,-0.4746 1.0471,-0.6939 0.6335,-0.3898 1.2663,-0.7793 1.8993,-1.181 0.1825,-0.1097 0.3655,-0.2317 0.5482,-0.3408 0.3773,-0.2435 0.7307,-0.5238 1.1323,-0.7306 0.4992,-0.2435 0.8885,-0.6333 1.4122,-0.7916 0.0972,-0.0242 0.1582,-0.1337 0.2555,-0.1581 0.1582,-0.0487 0.2074,-0.304 0.4385,-0.2192 0.1458,-0.0848 0.304,-0.1825 0.4502,-0.2555 0.1464,-0.0853 0.2924,-0.1581 0.4261,-0.2435 0.1583,-0.0854 0.3047,-0.1707 0.4504,-0.2679 0.1463,-0.0854 0.2923,-0.1825 0.4504,-0.2797 0.195,-0.122 0.4018,-0.2317 0.6092,-0.3413 0.7424,-0.426 1.4973,-0.8521 2.2643,-1.2657 0.5967,-0.3413 1.2053,-0.6696 1.802,-1.011 0.6571,-0.3774 1.3024,-0.755 1.9602,-1.1443 0.1458,-0.0853 0.2796,-0.1707 0.4379,-0.2679 -0.0728,-0.061 -0.0973,-0.0972 -0.1458,-0.1215 -0.3898,-0.183 -0.5842,-0.4995 -0.6696,-0.9012 -0.0485,-0.2192 -0.0485,-0.4379 -0.0485,-0.6572 0,-0.256 -0.0126,-0.5238 -0.0126,-0.7793l0 -0.0729c0.1464,-0.3289 0.0369,-0.6821 0.1221,-1.011 0.012,-0.0486 0.012,-0.0972 0,-0.1338 -0.1221,-0.2923 -0.0492,-0.5843 0.0243,-0.8764 0.0244,-0.0731 0,-0.1464 -0.0123,-0.2312 -0.012,-0.0734 -0.0612,-0.1582 -0.0369,-0.2073 0.0978,-0.1702 0.0492,-0.3527 0.0853,-0.5358 0.0488,-0.1824 0.0369,-0.3894 0.0369,-0.5962 0,-0.5599 0,-1.108 0,-1.6681 0,-0.1582 0,-0.2921 -0.0973,-0.426 -0.1096,-0.1583 -0.2316,-0.2802 -0.451,-0.268 -0.1096,0 -0.2311,-0.0242 -0.3407,-0.0122 -0.3045,0.0366 -0.5358,0.1949 -0.7667,0.3773 -0.0736,0.061 -0.1707,0.0978 -0.2317,0.1583 -0.085,0.0978 -0.1702,0.2073 -0.2187,0.3289 -0.0368,0.1097 -0.1098,0.1581 -0.195,0.231 -0.1463,0.122 -0.2922,0.2192 -0.3406,0.4261 -0.0368,0.0977 -0.1708,0.1588 -0.2679,0.256 -0.0248,0.1705 -0.0248,0.3774 -0.1707,0.5233l-0.0243 0.0978c-0.0125,0.1701 0.0363,0.3531 -0.0728,0.499 -0.0494,0.061 0.1337,0.0973 0.036,0.1706 -0.0485,0.0363 -0.1214,0.0487 -0.17,0.0729 -0.0248,0 -0.0248,0.0368 -0.0493,0.073 0.0493,0.0242 0.0979,0.0486 0.1339,0.0486 -0.0119,0.122 -0.0242,0.2317 -0.0361,0.3531 -0.1949,0.0486 -0.2073,0.0486 -0.1706,0.2803 0.0243,0.0972 0.0486,0.1949 0.0973,0.2923 0.0491,0.0853 0.0368,0.1949 -0.0362,0.231 -0.134,0.0611 -0.134,0.195 -0.2316,0.2803 -0.0244,0.0242 -0.012,0.1582 0.0247,0.1825 0.1215,0.0973 0.1458,0.2068 0.1338,0.3532 0,0.0729 0.0245,0.1456 0.0363,0.2311 -0.0728,0.0486 -0.1701,0.0978 -0.2311,0.1706 -0.0978,0.0972 0,0.1949 0.0243,0.2311 -0.0368,0.1463 -0.0853,0.2317 -0.0972,0.3408 -0.0124,0.1705 0,0.3289 0,0.4995 0,0.1458 -0.0369,0.2797 0.1824,0.2921 -0.1096,0.1826 -0.2678,0.3289 -0.061,0.5114 -0.0367,0.0243 -0.0611,0.0487 -0.0854,0.0611 0.1583,0.1339 0.134,0.1215 0.0854,0.304 -0.0367,0.1221 -0.1214,0.2561 -0.0367,0.3899 0,0.0243 -0.0119,0.073 -0.0119,0.1096 0,0.0606 -0.0368,0.1215 -0.0125,0.1459 0.134,0.1339 0.0368,0.256 -0.0485,0.3531 -0.1583,0.2068 -0.2555,0.4261 -0.2922,0.6697 0,0.0366 -0.0242,0.0728 -0.0487,0.1095 -0.2191,0.1826 -0.4141,0.3775 -0.682,0.4991 -0.1944,0.0853 -0.3774,0.1949 -0.5718,0.2921 -0.2922,0.1464 -0.5967,0.1339 -0.9132,0.0735 -0.3899,-0.0735 -0.5481,-0.3171 -0.609,-0.7792 -0.0363,-0.3046 0.0123,-0.6092 0.0248,-0.9133 0.0117,-0.5238 0.0362,-1.0351 0.0605,-1.5584 0.0243,-0.5967 0.0486,-1.1935 0.061,-1.7897 0.0243,-0.4994 0.0486,-1.0109 0.0729,-1.5216 0.0487,-0.6821 0.0736,-1.3642 0.1098,-2.0456 0.0242,-0.2311 0.0242,-0.4504 0.061,-0.6696 0.0728,-0.4018 0.2311,-0.7794 0.4504,-1.1082 0.4261,-0.596 1.0104,-0.9131 1.7167,-0.9979 0.0485,0 0.0853,-0.0249 0.1462,0 0.1944,0.0119 0.3894,0.0486 0.5842,-0.0854 0.0973,-0.061 0.2436,0 0.3651,0.0605 0.2193,0.0854 0.4871,0.1339 0.7307,0.0249 0.2436,-0.0977 0.4746,-0.2192 0.6571,-0.4018 0.0853,-0.0978 0.1826,-0.195 0.2678,-0.3046 0.0734,-0.0729 0.134,-0.1462 0.1949,-0.2311 0.2069,-0.2074 0.4019,-0.4018 0.5969,-0.6091l0.0484 -0.0486c0.402,-0.2436 0.8036,-0.5234 1.2665,-0.6572 0.3165,-0.0977 0.657,-0.1707 0.9859,-0.122 0.3042,0.061 0.5968,0.1339 0.8155,0.3898 0.2193,0.2312 0.2803,0.3165 0.3414,0.6087 0.0241,0.1095 0.0361,0.2191 0.1581,0.2678l0.0486 0.0853c-0.1826,0.1583 -0.1583,0.2921 0.0485,0.4504 0,0.1458 0,0.2555 0.0245,0.4017 -0.0245,0.0244 -0.1215,0.0368 -0.146,0.0854 -0.049,0.073 -0.049,0.1701 -0.0365,0.2554 0,0.1097 0,0.2069 0.0242,0.329 0.0486,-0.0244 0.0854,-0.0487 0.1463,-0.0972 0.0243,0.158 -0.1096,0.3164 0.0848,0.4503 -0.0728,0 -0.0973,0.012 -0.1582,0.0242 0.0245,0.2312 0.0367,0.4629 0.061,0.7184 -0.0365,0 -0.0971,0.0243 -0.158,0.0366 -0.0731,0.1458 0,0.2187 0.1215,0.2923 -0.0606,0.0486 -0.1093,0.0853 -0.1583,0.1338 0.0368,0.073 0.0853,0.1339 0.0978,0.1701 -0.0487,0.061 -0.1098,0.1097 -0.1098,0.1582 0,0.3775 -0.0123,0.7549 0,1.1449 0,0.0853 0.0611,0.1824 0.1098,0.2797 -0.061,0.0853 -0.1707,0.1583 -0.061,0.2921l-0.0245 0.0978c-0.0486,0.1583 -0.0486,0.1702 0.0973,0.268 0,0.1214 0,0.2554 0.0243,0.4016 -0.0118,0 -0.0729,0.0606 -0.0729,0.1097 0.0243,0.1459 0.0611,0.2799 -0.073,0.3894l0 0.0729c0.0611,0.0853 0.073,0.1706 0.0243,0.2559l-0.0243 0.073c0,0 0.0973,0.073 0.1583,0.1221 -0.0973,0.0485 -0.1583,0.0972 -0.122,0.2187 0.0248,0.0734 -0.0731,0.183 0.0853,0.2315l0.0368 0.0487c-0.0731,0.1583 0.0485,0.2068 0.1582,0.2678 -0.0244,0.0611 -0.0487,0.0974 -0.061,0.1339 -0.0243,0.0368 -0.0488,0.0612 -0.0973,0.1097 0.1214,0.0487 0.2068,0.1097 0.1949,0.2555 0,0.0243 0.0244,0.1706 0.1456,0.1706l0.0856 0.073c0.158,0.2068 0.3046,0.2678 0.5599,0.1824 0.2067,-0.0605 0.4261,-0.1339 0.6212,-0.2187 0.5599,-0.2802 1.1198,-0.5724 1.668,-0.8645 0.3408,-0.1706 0.6815,-0.3532 1.0222,-0.5114 0.4384,-0.1949 0.9013,-0.2193 1.376,-0.1463 0.1705,0.0243 0.3407,0.0367 0.5113,0.0367 0.1951,0.0125 0.3775,0.1582 0.4746,0.3649 0.0979,0.2193 0.2319,0.4385 0.3414,0.6578l0 0.0972c-0.0734,0.0978 -0.0979,0.1826 0,0.2804l0 0.0972zm-41.4918 -21.8781l0 0 -0.0486 0.0243c-0.5849,0.1463 -1.0471,0.4627 -1.4372,0.8888 -0.2796,0.2923 -0.5357,0.5968 -0.7182,0.9742 -0.1457,0.3284 -0.3407,0.6206 -0.4869,0.9495 -0.1583,0.3774 -0.3043,0.7668 -0.438,1.1567 -0.39,1.0103 -0.7674,2.0207 -1.1568,3.0193 -0.2559,0.6819 -0.5115,1.3635 -0.7549,2.0573 -0.1582,0.4019 -0.2924,0.828 -0.426,1.2297 -0.3408,0.9624 -0.694,1.9241 -1.0348,2.8734 -0.049,0.134 -0.1096,0.2436 -0.1587,0.3776 -0.0486,0.1337 -0.1091,0.2677 -0.1582,0.4141 -0.0729,0.2068 -0.1098,0.4136 -0.1824,0.6204 -0.0854,0.2436 -0.2069,0.4628 -0.2799,0.7063 -0.1462,0.4991 -0.2803,0.9861 -0.4141,1.4855 -0.0242,0.0731 -0.061,0.1458 -0.0854,0.2187 -0.0362,0.1097 -0.0729,0.2317 -0.0972,0.3413 -0.0243,0.1702 0.0243,0.3407 -0.122,0.4866 -0.0363,0.0367 -0.0244,0.1219 -0.0485,0.1831 -0.0245,0.0972 -0.0488,0.1943 -0.0608,0.304 -0.2191,0.7674 -0.4509,1.5342 -0.6695,2.3011 -0.0853,0.3289 -0.1098,0.6819 -0.2074,1.0227 -0.0972,0.3774 -0.2311,0.7425 -0.3284,1.1081 -0.2074,0.7792 -0.4016,1.546 -0.609,2.3253 -0.0245,0.1215 -0.073,0.2436 -0.0973,0.3651 -0.061,0.2559 -0.1096,0.5113 -0.1705,0.7673 -0.0487,0.2192 -0.1214,0.4379 -0.1702,0.6696 -0.1706,0.8397 -0.317,1.6923 -0.4995,2.5445 -0.1458,0.6815 -0.2921,1.3636 -0.4016,2.0574 -0.1098,0.755 -0.268,1.4974 -0.4019,2.2524 -0.073,0.438 -0.1213,0.8765 -0.1825,1.315 -0.1214,0.7182 -0.2312,1.4488 -0.3408,2.167 -0.061,0.4622 -0.1096,0.9251 -0.1825,1.3879 0,0.1339 -0.0733,0.2553 -0.1219,0.3773 -0.0728,-0.0609 -0.1096,-0.0853 -0.1581,-0.1337 -0.0368,-0.0487 -0.0856,-0.0855 -0.0856,-0.1464 -0.0118,-0.1339 -0.0359,-0.2798 0,-0.4136 0.0245,-0.1583 -0.0118,-0.2192 -0.1337,-0.2679 -0.0243,-0.329 0.0242,-0.6578 -0.0973,-0.9618 -0.0242,-0.061 -0.0123,-0.122 0,-0.1825 0.0242,-0.1949 0.0611,-0.3656 0.0486,-0.5606 -0.0118,-0.1091 -0.0367,-0.2068 -0.0971,-0.304 -0.0979,-0.122 -0.2074,-0.268 -0.0736,-0.4386 -0.0486,0 -0.109,-0.0243 -0.1826,-0.0362 0.0369,-0.2434 0.0125,-0.487 0.1098,-0.7063 0.1096,-0.2311 0.0612,-0.4141 -0.0243,-0.6328l-0.0367 -0.0612c-0.073,-0.2315 -0.1945,-0.4627 -0.1825,-0.7063 0,-0.2192 -0.0362,-0.4136 -0.1097,-0.6209 -0.0606,-0.1825 -0.1582,-0.4018 0,-0.5962 -0.1459,-0.2678 -0.1582,-0.2678 -0.1701,-0.5967 0,-0.1463 -0.0854,-0.2802 -0.122,-0.426 -0.0854,-0.1949 -0.2436,-0.4017 -0.1583,-0.5967 -0.0727,-0.0973 -0.1338,-0.1582 -0.1457,-0.2311 -0.0243,-0.2192 -0.0367,-0.4385 -0.0853,-0.6576 -0.073,-0.2193 -0.073,-0.438 -0.134,-0.6697 -0.0366,-0.1581 -0.0366,-0.3284 -0.0728,-0.487 -0.0125,-0.2431 -0.1831,-0.4748 -0.0249,-0.7303 0.0124,-0.0242 -0.0119,-0.0734 -0.0244,-0.1218 0,-0.0606 -0.0605,-0.134 -0.0486,-0.1826 0.0611,-0.1457 -0.0242,-0.195 -0.0853,-0.2312 -0.0243,-0.1338 -0.0243,-0.2316 -0.0363,-0.3165 -0.0123,-0.1097 -0.0485,-0.2192 -0.0733,-0.3289 -0.0119,-0.061 0,-0.1581 -0.0119,-0.1949 -0.1463,-0.1825 -0.0973,-0.4136 -0.1463,-0.621 -0.0848,-0.4136 -0.1215,-0.8278 -0.1825,-1.2538 -0.134,-0.8278 -0.2921,-1.6558 -0.4381,-2.4835 -0.0611,-0.329 -0.1828,-0.6454 -0.3774,-0.9133 -0.4626,-0.6452 -1.4244,-0.7548 -2.0579,-0.3649 -0.3407,0.2187 -0.5718,0.5108 -0.7184,0.8883 -0.0973,0.256 -0.1825,0.5239 -0.2678,0.7916 -0.2068,0.6086 -0.4016,1.2053 -0.6084,1.8139 -0.0244,0.0972 -0.0611,0.2192 -0.1098,0.3045 -0.0729,0.134 -0.1215,0.268 -0.1457,0.4261 -0.0369,0.1458 -0.1097,0.2798 -0.1464,0.4261 -0.061,0.1826 -0.1339,0.3531 -0.1707,0.5358 -0.0847,0.4871 -0.2921,0.925 -0.4259,1.3879 -0.0606,0.1705 -0.1215,0.3288 -0.1703,0.4989 -0.0733,0.3046 -0.1462,0.621 -0.3288,0.9012 -0.0728,0.0974 -0.0854,0.2312 -0.0973,0.3532 -0.0246,0.1825 -0.0609,0.3775 -0.1706,0.5114 -0.0727,0.0849 -0.1338,0.1826 -0.1463,0.2921 -0.0485,0.3408 -0.17,0.6696 -0.3041,0.9861 -0.1096,0.2554 -0.2192,0.499 -0.2678,0.7793 -0.0853,0.3894 -0.2559,0.7668 -0.3774,1.1444 -0.1098,0.353 -0.2434,0.7181 -0.3531,1.0955 -0.0124,0.0487 -0.0243,0.122 0,0.1826 0.1098,0.5358 0.4143,0.9256 0.9742,1.0471 0.17,0.0485 0.3525,0 0.5234,0 0.353,-0.0244 0.621,-0.1825 0.852,-0.438 0.0485,-0.0612 0.1098,-0.0978 0.1339,-0.1097 0.0486,-0.122 0.0735,-0.2073 0.1096,-0.3045 0,-0.0369 0.0486,-0.0854 0.0611,-0.1215 0.0973,-0.3046 0.195,-0.5968 0.365,-0.8646 0.0611,-0.0853 0.0854,-0.1705 0.0978,-0.2679 0.0363,-0.1582 0.0849,-0.3046 0.2311,-0.3655 0,-0.0606 -0.0367,-0.1091 -0.0242,-0.1458 0.0728,-0.1706 0.1582,-0.3407 0.231,-0.5114 0.0243,-0.0368 0.0243,-0.0853 0.0243,-0.1339 0.0126,-0.0853 0.0244,-0.1706 0.0244,-0.2678 0.1586,0 0.0854,-0.134 0.1221,-0.2312 0.0609,-0.1705 0.0365,-0.3898 0.1948,-0.5238l0 -0.0487c-0.061,-0.2435 0.1943,-0.3649 0.1943,-0.5723 0.1708,-0.1458 0.1465,-0.3407 0.1339,-0.5475 0.0491,-0.0244 0.1221,-0.0611 0.1464,-0.073 0.0242,-0.0735 0.0487,-0.1706 0.0487,-0.1706 0.122,0 0.1338,-0.0972 0.1705,-0.1706 0.0606,-0.1458 0.0974,-0.2798 0.1583,-0.4137 0.0243,-0.0486 0.0728,-0.1097 0.1096,-0.0978 0.0973,0.0243 0.1943,0.0736 0.2678,0.1339 0.0731,0.0612 0.1338,0.1464 0.0731,0.268 -0.0245,0.0366 0,0.0853 0.0123,0.1337 0.073,-0.0242 0.1339,-0.0485 0.1825,-0.0729 0,0.134 0.0245,0.2561 0,0.3776 -0.0486,0.1705 0,0.3404 0,0.4988 0,0.1097 0.0245,0.183 0.0973,0.2678 0.0611,0.0736 0.1463,0.1707 0.1463,0.256 0,0.2193 0.073,0.4136 0.0973,0.621 0.0853,0.5114 0.158,1.0347 0.2436,1.5461 0.0485,0.3531 0.1214,0.7063 0.0853,1.0589 0,0.0735 0,0.1581 0.0362,0.2074 0.1218,0.1458 0.1096,0.3284 0.1218,0.4989 0.0245,0.1826 0.0613,0.3775 0.0731,0.5724 0.1219,0.7058 0.231,1.4241 0.3407,2.1428 0.0853,0.6204 0.1706,1.2538 0.2678,1.8868 0.0854,0.5843 0.1706,1.1685 0.2559,1.7534 0.0974,0.5842 0.1826,1.1562 0.2924,1.741 0.061,0.3284 0.1215,0.6453 0,0.9737l0 0.0486c0.2193,0.183 0.3046,0.2927 0.0484,0.5848 0.1584,-0.0368 0.2194,0.0242 0.2437,0.1581 0.061,0.3651 0.0853,0.7426 0.1825,1.1076 0.0243,0.1097 0.0611,0.2318 0,0.3413 -0.012,0.0361 0.0243,0.0848 0.0486,0.1338 0,0.0487 0.0492,0.0973 0.061,0.1458 0.0855,0.4504 0.1463,0.9132 0.2312,1.3635 0.0853,0.4872 0.1463,0.95 0.2317,1.4246 0.1215,0.5725 0.2678,1.1443 0.4016,1.7167 0.0613,0.2921 0.2193,0.5114 0.4505,0.7063 0.3532,0.2923 0.7426,0.2679 1.1443,0.1702 0.5115,-0.1339 0.8159,-0.4623 0.9861,-0.9618 0.1706,-0.4991 0.2316,-1.0346 0.317,-1.5461 0.0972,-0.499 0.1582,-1.0103 0.2312,-1.5218 0.0853,-0.5966 0.1705,-1.2052 0.2436,-1.8144 0.1338,-0.9979 0.2433,-1.9964 0.3648,-2.995 0.0611,-0.4746 0.122,-0.9493 0.1826,-1.412 0.0367,-0.268 0.061,-0.5482 0.1339,-0.7911 0.0735,-0.2193 0.1705,-0.4266 0.1463,-0.6578 0.2921,-0.1097 0.3046,-0.1949 0.1096,-0.4136l-0.061 -0.1097c0,-0.122 0.0124,-0.2436 0.0367,-0.3532 0.0243,-0.2802 0.0853,-0.5481 0.0853,-0.8277 0,-0.2073 0.0851,-0.3656 0.2069,-0.5114 0.0855,-0.0853 0.1097,-0.1826 0.1339,-0.2923 0,-0.0485 0,-0.0978 0.0243,-0.1338 0.1583,-0.2436 0.0973,-0.4996 0.0973,-0.7549 0,-0.0244 -0.0362,-0.0731 -0.073,-0.0731 -0.1096,-0.0123 -0.1096,-0.0978 -0.1096,-0.1705 0,-0.3651 0.1221,-0.7307 0.1825,-1.0833 0.0242,-0.1462 0.0368,-0.3046 0.0853,-0.4385 0.0486,-0.1097 0.0611,-0.2068 0.0368,-0.3165 -0.0243,-0.1096 0,-0.1824 0.0728,-0.2559 0.0488,-0.0486 0.0856,-0.0973 0.0972,-0.1582 0.0126,-0.2193 0.0249,-0.4504 0.0126,-0.6816 0,-0.0978 0.0243,-0.1949 0.0611,-0.2921 0.0728,-0.2193 0.1825,-0.4385 0.1337,-0.6944 -0.0242,-0.0731 0.0363,-0.1702 0.0731,-0.2555 0.0485,-0.0972 0.1215,-0.1825 0.158,-0.2922 0.0488,-0.2067 0.0731,-0.4141 0,-0.6328 -0.0365,-0.0736 -0.0118,-0.1707 0,-0.2436 0,-0.0853 0.0368,-0.1583 0.0613,-0.2317 0,-0.0729 0.0243,-0.1339 0.0971,-0.1825 0.061,-0.0367 0.1098,-0.1582 0.0978,-0.2436 0,-0.0728 -0.0368,-0.1339 0.0363,-0.1824l0 -0.1097c-0.0363,-0.0852 -0.012,-0.1338 0.0367,-0.1948 0.0117,-0.0363 0,-0.0849 0.0117,-0.1339 0,-0.0729 -0.0117,-0.1583 0,-0.2312 0.1098,-0.4747 0.2319,-0.9498 0.329,-1.4246 0.134,-0.5966 0.2561,-1.1929 0.4018,-1.7771 0.122,-0.4872 0.2068,-0.9986 0.4384,-1.449 0.134,-0.2802 0.1459,-0.6209 0.3651,-0.8644l0.0243 -0.0855c0.0487,-0.2192 0.1098,-0.4385 0.1707,-0.6453 0.0118,-0.061 0.0486,-0.1456 0.1096,-0.17 0.2311,-0.1588 0.2797,-0.4017 0.3283,-0.6577 0.0249,-0.1582 0,-0.329 0.0249,-0.4871 0.0361,-0.2436 0.0849,-0.4872 0.1339,-0.7425 0.0243,-0.1464 0.0243,-0.3048 0.0729,-0.4385 0.0361,-0.1458 0.134,-0.2679 0.195,-0.4019 0.0363,-0.0729 0.0728,-0.1457 0.0847,-0.2187 0.0611,-0.2434 0.122,-0.4995 0.1831,-0.755 0.0243,-0.0485 0.0486,-0.0977 0.0731,-0.1337 0.0728,-0.1221 0.158,-0.2561 0.2191,-0.3775 0.0242,-0.0367 0,-0.1097 -0.0243,-0.1463 -0.0612,-0.0972 -0.0492,-0.1826 0.012,-0.2922 0.0727,-0.1582 0.1462,-0.329 0.2068,-0.499 0.0242,-0.0368 0,-0.0729 0,-0.1097 0.0124,-0.0729 0.0124,-0.122 0.0242,-0.1824 0.0248,-0.0736 0.0367,-0.134 0.0491,-0.2074 0.0607,-0.2068 0.1098,-0.4138 0.1583,-0.6205 0.0729,-0.2435 0.1701,-0.4752 0.2435,-0.7188 0.073,-0.2312 0.1339,-0.4623 0.2311,-0.6938 0.0611,-0.1702 0.134,-0.3526 0.2069,-0.5235 0.0611,-0.1337 0.1338,-0.2677 0.1707,-0.4017 0.1096,-0.4141 0.231,-0.8402 0.4626,-1.2052 0.0362,-0.0611 0.073,-0.1464 0.1097,-0.207 0.073,-0.1581 0.1583,-0.3289 0.2186,-0.487 0.0369,-0.0729 0.0613,-0.1583 0.0613,-0.2436 -0.0244,-0.1581 0.0243,-0.3046 0.0853,-0.4385 0.2192,-0.4865 0.4136,-0.986 0.6329,-1.485 0.3045,-0.6938 0.6333,-1.3878 0.9373,-2.0817 0.0856,-0.1831 0.2318,-0.3289 0.3049,-0.4996 0.158,-0.3407 0.3773,-0.6453 0.5966,-0.9618 0.2677,-0.4017 0.6084,-0.7669 0.925,-1.1443 0.0971,-0.122 0.2311,-0.2316 0.3531,-0.3289 0.0363,-0.0368 0.134,-0.0243 0.1457,-0.061 0.0368,-0.0487 0.0491,-0.1214 0.0736,-0.1826l0.0604 -0.0361c0.0855,-0.0611 0.1582,-0.122 0.256,-0.1707 0.0973,-0.0485 0.134,-0.2311 0.195,-0.353 0.0243,-0.0487 0,-0.1215 0.0361,-0.1583 0.1098,-0.1705 0.2436,-0.3289 0.3533,-0.4989 0.1462,-0.2436 0.2801,-0.4872 0.3288,-0.7793 0.0729,-0.4261 0.0362,-0.8278 -0.0853,-1.242 -0.2193,-0.7549 -0.7065,-1.242 -1.4613,-1.4974 -0.1943,-0.0611 -0.4136,-0.1214 -0.6085,-0.1826l-0.5843 0 0.0611 -0.0853zm3.7497 30.084l0 0c0.0487,-0.1097 0.073,-0.2316 0.0854,-0.3531 0.0361,-0.1949 0.0972,-0.4142 0.1825,-0.6085 0.1701,-0.3898 0.438,-0.7307 0.7426,-1.0352 0.3164,-0.3164 0.6821,-0.5961 1.0345,-0.8639 0.3047,-0.2193 0.5724,-0.4385 0.7675,-0.755 0.1943,-0.3165 0.1826,-0.6578 0.1097,-0.9862 -0.0244,-0.1949 -0.1831,-0.3654 -0.2678,-0.5481 -0.1584,-0.3165 -0.4385,-0.4017 -0.7551,-0.365 -0.2559,0.0242 -0.4872,0.1215 -0.7064,0.2554 -0.1338,0.0855 -0.2796,0.1464 -0.4136,0.1949 -0.1705,0.073 -0.329,0.1097 -0.4752,0.1826 -0.2798,0.1581 -0.5843,0.2554 -0.9007,0.2802 -0.4504,0.0487 -0.9008,0.1583 -1.3026,0.3651 -0.3773,0.2068 -0.7187,0.4871 -0.9255,0.8765 -0.2068,0.3898 -0.3164,0.8402 -0.3531,1.2781 -0.0486,0.5358 -0.0605,1.0839 -0.0973,1.6319 -0.0125,0.2679 -0.0368,0.5475 -0.0485,0.8278 -0.0243,0.3284 -0.0611,0.6453 -0.0731,0.9737 0,0.1462 0,0.3045 -0.049,0.4502 -0.0731,0.2074 -0.1215,0.4143 -0.1098,0.6334 0.0248,0.268 -0.0971,0.5358 0.0125,0.8036l0 0.0854c-0.0854,0.2679 -0.1463,0.5476 -0.0368,0.8277 0.0125,0.0362 0.0125,0.0855 0,0.1458 -0.0118,0.1708 -0.0363,0.3413 -0.0363,0.5114 0,0.2804 -0.122,0.5482 -0.061,0.8402 0.0367,0.268 0,0.5476 0,0.828 0,0.2311 0.073,0.4626 0.195,0.6572 0.17,0.3045 0.4747,0.487 0.7793,0.426 0.5718,-0.1097 1.1443,-0.3894 1.6189,-0.8521 0.4142,-0.4019 0.5967,-0.9008 0.6455,-1.4609 0.0242,-0.2559 -0.0369,-0.5238 0.0853,-0.7674l0 -0.0973c0,-0.2311 -0.0243,-0.4626 -0.0125,-0.6813 0.0244,-0.5239 0.061,-1.0472 0.0853,-1.5586 0,-0.1706 0.0487,-0.3165 0.0487,-0.4627 0.0125,-0.2923 0,-0.5843 0.0125,-0.8765 0.0117,-0.122 0,-0.2922 0.158,-0.3412 0,-0.1825 0,-0.3284 0.0369,-0.4504l0.0242 -0.0119zm-5.8196 -1.0108l0 0c0.0124,-0.2431 -0.0488,-0.4867 -0.2312,-0.6696 -0.2074,-0.2555 -0.4995,-0.268 -0.7794,-0.1944 -0.6451,0.17 -1.1933,0.5233 -1.5952,1.0589 -0.4988,0.6696 -0.6813,1.4487 -0.7544,2.2648 -0.0249,0.304 -0.0491,0.596 -0.0733,0.9006 0,0.1215 -0.0244,0.2436 -0.0244,0.3775 0,0.2312 0,0.4627 -0.0244,0.7063 -0.0242,0.5233 -0.0609,1.0465 -0.0854,1.5703 0,0.0611 -0.0243,0.134 -0.0362,0.207 -0.0123,0.0728 -0.0365,0.1219 -0.0365,0.1949 -0.0126,0.2311 0,0.4627 -0.0368,0.6938 -0.012,0.2555 -0.0605,0.4872 -0.0605,0.7426 0,0.5724 -0.0611,1.1444 -0.0736,1.7166 -0.0118,0.4991 -0.0605,0.9986 0,1.4975 0.0493,0.5357 0.195,0.7183 0.7675,0.7793 0.2311,0.0243 0.4135,-0.0368 0.6087,-0.1458 0.3892,-0.2193 0.7547,-0.4627 1.0712,-0.7792l0.0854 -0.0492c0.1456,0.0492 0.1701,-0.073 0.195,-0.1582 0.231,0.0125 0.2677,-0.0487 0.231,-0.2798l-0.1825 0c0,-0.0853 0.0242,-0.1462 0.0242,-0.2068 0.0244,-0.1097 0.0612,-0.2074 0.0854,-0.317 0.0607,-0.3165 0.1097,-0.6329 0.1703,-0.9494 0,-0.0487 0.0367,-0.0977 0.0242,-0.1463 -0.0973,-0.365 0,-0.7426 -0.0242,-1.12 0,-0.0362 0,-0.0728 0,-0.1214 0.0484,-0.3165 0.1095,-0.6334 0.1462,-0.9618 0.0362,-0.2679 0.0611,-0.5482 0.1338,-0.8036 0.0244,-0.1097 0.0119,-0.2434 0.0244,-0.353 0,-0.122 0,-0.2436 0.0244,-0.3656 0.0365,-0.1825 0.1214,-0.3527 0.1462,-0.5358 0.0242,-0.2553 0.0486,-0.5232 0.0362,-0.7909 0,-0.2312 -0.0243,-0.4504 0.0728,-0.6697 0.0856,-0.1949 0.0856,-0.4141 0.1098,-0.621 0.0123,-0.1458 0.0491,-0.2798 0.0368,-0.426 -0.0125,-0.1583 0.0123,-0.2799 0.0853,-0.4138 0.0363,-0.061 0.0611,-0.1705 0.0486,-0.2192 -0.0611,-0.1338 0,-0.2316 0.0243,-0.3046 -0.0611,-0.1581 -0.1458,-0.292 -0.1581,-0.4384 -0.0487,-0.1944 -0.0125,-0.231 0.1824,-0.3165 -0.0609,-0.1214 -0.1824,-0.1943 -0.1701,-0.3405l0.012 -0.0125zm24.4226 -5.2959l0 0c-0.1459,-0.0729 -0.1339,-0.2193 -0.1216,-0.3289 0,-0.1459 0.0364,-0.2922 0.134,-0.4137l0.0604 -0.0853c-0.0604,-0.1949 0.0611,-0.3894 -0.0485,-0.5843 -0.0362,-0.0486 -0.0119,-0.1097 0,-0.1581 0.0242,-0.0612 0.0124,-0.0978 0,-0.1707 -0.0243,-0.1582 0,-0.3165 0,-0.4746 0,-0.1221 -0.0487,-0.2436 -0.0119,-0.3532 0.073,-0.1706 0.0119,-0.3289 0,-0.4871 0,-0.1825 -0.0124,-0.365 -0.0124,-0.5357 0,-0.073 0.0243,-0.1458 0.0485,-0.2192 0.0243,-0.0973 0.098,-0.2068 0.0735,-0.3042 -0.0243,-0.1095 -0.0243,-0.1706 0.0119,-0.2678 0.0487,-0.1464 0.073,-0.3165 0.0487,-0.4504 -0.0361,-0.2192 0.0492,-0.4017 0.0853,-0.5966 0.0243,-0.1826 0.0729,-0.3532 -0.0242,-0.5357 -0.0611,-0.1097 -0.1339,-0.2193 -0.1339,-0.3776 0,-0.2553 -0.1097,-0.3773 -0.3651,-0.4141 -0.1825,-0.0244 -0.3899,0 -0.5843,0.0249 -0.3044,0.0485 -0.5606,0.2311 -0.8035,0.4379 -0.4752,0.4017 -0.7062,0.9499 -0.8402,1.5341 -0.061,0.3289 -0.0853,0.6572 -0.134,0.9861 -0.0365,0.2312 -0.0609,0.4504 -0.0853,0.6821 -0.0485,0.5357 -0.0971,1.0833 -0.158,1.6314 -0.0488,0.4261 -0.0974,0.8641 -0.134,1.2906 -0.0973,0.9375 -0.1825,1.8749 -0.2679,2.8123 0,0.1702 -0.0123,0.3284 -0.0367,0.4991 -0.0118,0.3046 -0.0729,0.6209 -0.0606,0.925 0.012,0.256 0.1215,0.5238 0.3894,0.6577 0.2311,0.1215 0.4747,0.1458 0.7064,0.061 0.5357,-0.1949 1.0345,-0.4627 1.4606,-0.8526 0.2194,-0.1944 0.3047,-0.4747 0.4998,-0.6696 0,-0.2798 0.158,-0.5476 0.036,-0.8154 -0.0242,-0.061 -0.0242,-0.1339 -0.0118,-0.2068 0.0118,-0.3898 0.0362,-0.7675 0.0486,-1.1692 0.0243,-0.2068 0.0362,-0.4136 0.0487,-0.6209 0.0728,0.0124 0.1337,0.0367 0.1949,0.061 -0.0612,-0.1338 -0.1096,-0.2312 -0.1706,-0.365 0.073,0.0361 0.1095,0.0605 0.1463,0.0729 0.0847,-0.0972 0.0604,-0.1824 -0.0243,-0.2192l0.0362 0zm-25.628 0.6821l0 0c0.1706,0.0604 0.3651,0.1214 0.5725,0.0119 0.462,-0.2069 0.8764,-0.4991 1.2657,-0.8155 0.0977,-0.0734 0.2073,-0.1339 0.2559,-0.2317 0.1098,-0.1943 0.2798,-0.3525 0.3893,-0.5599 0.195,-0.3532 0.256,-0.7059 0.0979,-1.0957 -0.0494,-0.1097 -0.1097,-0.2312 -0.1464,-0.3532 -0.0367,-0.1458 -0.1339,-0.2068 -0.2554,-0.2555 -0.0854,-0.0242 -0.1707,-0.0366 -0.256,-0.0366 -0.304,0 -0.5719,0.0853 -0.8153,0.2436 -0.2924,0.1949 -0.5725,0.4141 -0.8522,0.6452 -0.1338,0.0973 -0.2192,0.2435 -0.3412,0.3531 -0.1825,0.1582 -0.2068,0.4018 -0.2922,0.5968 -0.0974,0.1824 -0.1338,0.4017 -0.1701,0.5232 0.0242,0.4871 0.1701,0.8159 0.5357,0.9499l0.0119 0.0244zm26.7117 -13.1974l0 0c-0.256,-0.0853 -0.4996,-0.0734 -0.7549,-0.0124 -0.4871,0.1096 -0.9007,0.3773 -1.2539,0.7306 -0.2679,0.2555 -0.4262,0.5601 -0.5238,0.9132 -0.0854,0.2797 -0.0731,0.5233 0.0485,0.7787 0.0491,0.0977 0.0979,0.2073 0.1831,0.2928 0.0848,0.0729 0.1943,0.1338 0.3041,0.1581 0.3656,0.1097 0.7307,0.1583 1.0712,-0.0978l0.0979 -0.0485c0.2311,-0.1707 0.4746,-0.3047 0.6329,-0.5601 0.1097,-0.1707 0.2436,-0.3289 0.3893,-0.4747 0.2317,-0.2317 0.2678,-0.5482 0.4018,-0.8159l0 -0.0729c-0.0487,-0.2679 -0.134,-0.5234 -0.3285,-0.7183 -0.0853,-0.0125 -0.1949,-0.0125 -0.2678,-0.0486l0 -0.0243z"/>
   </g>
   <path class="fil0" d="M54.5452 37.6684c1.6437,0 2.4224,0.7308 3.19,2.0943l8.6195 15.9005 8.6199 -15.9005c0.755,-1.3635 1.546,-2.0943 3.1897,-2.0943l-11.8095 21.7934 -11.7975 -21.7934 -0.012 0zm3.1774 0l0 0 8.6199 15.9617 8.6202 -15.9617 -2.0337 0 -6.5865 12.1385 -6.5867 -12.1385 -2.0332 0z"/>
   <path class="fil0" d="M77.1782 48.2851c0,-6.0995 4.9429,-11.0428 11.0428,-11.0428 6.0994,0 11.0421,4.9433 11.0421,11.0428 0,6.0995 -4.9427,11.0427 -11.0421,11.0427 -6.0999,0 -11.0428,-4.9432 -11.0428,-11.0427zm20.3925 0l0 0c0,-5.1619 -4.1878,-9.3502 -9.3497,-9.3502 -5.1625,0 -9.3502,4.1883 -9.3502,9.3502 0,5.162 4.1877,9.3503 9.3502,9.3503 5.1619,0 9.3497,-4.1883 9.3497,-9.3503zm-17.6045 0l0 0c0,4.5778 3.6765,8.2546 8.2547,8.2546 4.5779,0 8.2541,-3.6769 8.2541,-8.2546 0,-4.5777 -3.6763,-8.2546 -8.2541,-8.2546 -4.5783,0 -8.2547,3.677 -8.2547,8.2546zm14.817 0l0 0c0,-3.6159 -2.9463,-6.5498 -6.5504,-6.5498 -3.6034,0 -6.5499,2.9463 -6.5499,6.5498 0,3.6041 2.9465,6.5504 6.5499,6.5504 3.6041,0 6.5504,-2.9463 6.5504,-6.5504z"/>
   <path class="fil0" d="M106.5678 58.9018l0 -8.7417 -6.8905 -12.5033c1.5829,0 2.4591,0.7548 3.0921,1.9115l5.4909 10.0193 0 9.3142 -1.7043 0 0.0119 0zm-3.7129 -21.2334l0 0 0.0123 0 5.9531 10.8971 5.942 -10.8971 -2.0339 0 -3.92 7.22 -3.9204 -7.22 -2.0331 0zm6.501 11.9192l0 0 5.491 -10.0193c0.6334,-1.1568 1.5223,-1.9115 3.0927,-1.9115l-6.8912 12.5033 0 8.7417 -1.7042 0 0 -9.3142 0.0118 0z"/>
   <path class="fil0" d="M128.2635 37.121l11.8088 21.7927c-1.6424,0 -2.4219,-0.7301 -3.1887,-2.0941l-8.6202 -15.9002 -8.6199 15.9002c-0.755,1.364 -1.5461,2.0941 -3.1898,2.0941l11.8096 -21.7927zm0 5.8196l0 0 -8.6199 15.9612 2.0333 0 6.5866 -12.1383 6.5865 12.1383 2.0337 0 -8.6202 -15.9612z"/>
   <path class="fil0" d="M161.7447 46.1057l0 8.827c-2.0335,2.666 -5.2242,4.3951 -8.8268,4.3951 -6.0994,0 -11.0429,-4.9432 -11.0429,-11.0427 0,-6.0995 4.9435,-11.0428 11.0429,-11.0428 2.0335,0 3.944,0.5482 5.5878,1.5224 -0.5115,0.8521 -1.2415,1.1561 -2.483,0.6939 -0.9746,-0.3656 -1.9726,-0.5115 -3.0938,-0.5115 -5.1619,0 -9.3493,4.1878 -9.3493,9.3503 0,5.162 4.1874,9.3504 9.3493,9.3504 2.7884,0 5.3694,-1.1811 7.0988,-3.251l0 -6.5865 -6.4642 0 0.9373 -1.7048 7.2564 0 -0.0125 0zm-15.3892 2.1794l0 0 -0.0126 -0.0242c0,-3.6036 2.9351,-6.5499 6.5501,-6.5499 1.2537,0 2.4357,0.365 3.434,0.9737l0.8156 -1.4851c-1.2788,-0.755 -2.6668,-1.181 -4.2496,-1.181 -4.5773,0 -8.2545,3.6765 -8.2545,8.2546 0,4.5778 3.6773,8.2541 8.2545,8.2541 2.4592,0 4.2855,-0.8764 6.0149,-2.6049l0 -5.0405 -5.9541 0 -0.9373 1.7042 4.9794 0 0 2.8247c-1.1197,0.8764 -2.5437,1.4246 -4.0907,1.4246 -3.604,0 -6.5498,-2.9343 -6.5498,-6.5504z"/>
   <path class="fil0" d="M166.7727 37.6684l13.1732 0c0,1.1568 -0.9982,1.7048 -2.3379,1.7048l-9.1309 0 0 17.8481 9.1309 0c1.6688,0 2.3379,0.8158 2.3379,1.7047l-13.1732 0 0 -21.2576zm2.7883 2.7881l0 0 0 7.293 7.6449 0 0.9388 -1.7043 -6.8914 0 0 -3.8838 8.6801 0 0 -1.7048 -10.3724 0zm1.7045 13.9648l0 0 0.0111 0.0125 0 -3.8838 4.4569 0 0.9126 -1.7048 -7.0726 0 0 7.2804 10.3724 0 0 -1.7042 -8.6804 0z"/>
   <path class="fil0" d="M198.6212 52.9239c0,3.7374 -3.5792,6.404 -7.3159,6.404 -3.1297,0 -5.491,-1.2419 -7.4638,-3.0073 0.4866,-0.8154 1.5456,-0.8765 2.4843,-0.2435 1.4239,0.9742 3.0068,1.546 5.1012,1.546 2.8491,0 5.491,-2.0332 5.491,-4.736 0,-3.0677 -2.4593,-4.1877 -5.1026,-5.2473 -2.2145,-0.8763 -4.2108,-1.9359 -4.2108,-4.1273 0,-1.911 1.6423,-3.5549 3.8225,-3.5549 1.3631,0 2.6653,0.487 4.0658,1.5218l-0.8157 1.4611c-1.2179,-0.9984 -2.2768,-1.2787 -3.2501,-1.2787 -1.218,0 -2.1193,0.6697 -2.1193,1.7654 0,0.9742 0.9138,1.7291 3.2141,2.7032 2.7275,1.1563 6.0994,2.4592 6.0994,6.7934zm-13.8051 -9.2774l0 0 -0.0125 0c0,4.1273 3.3109,5.5275 5.8311,6.5865 2.4595,1.0351 3.4949,1.6071 3.4949,2.7028 0,1.181 -1.0838,1.9116 -2.7276,1.9116 -1.9354,0 -4.1888,-1.2419 -5.3694,-2.5202l-0.7907 1.4855c1.5456,1.5093 3.8224,2.727 6.185,2.727 2.3611,0 4.3947,-1.6071 4.3947,-3.6402 0,-2.3377 -1.9355,-3.3119 -4.334,-4.2494 -2.5202,-1.0104 -4.9795,-2.2518 -4.9795,-5.1008 0,-2.5204 2.0336,-4.6144 4.9187,-4.6144 1.3022,0 2.2519,0.3406 2.9459,0.6695 1.2415,0.5844 1.9728,0.4261 2.4221,-0.4502 -1.5457,-1.3393 -3.5183,-1.9118 -5.429,-1.9118 -3.6413,0 -6.5499,2.8492 -6.5499,6.4042z"/>
  </g>
 </g>
</svg>
