<?xml version="1.0" encoding="UTF-8"?>
<svg id="Layer_1" data-name="Layer 1" xmlns="http://www.w3.org/2000/svg" viewBox="0 0 960 960">
  <defs>
    <style>
      .cls-1 {
        fill-rule: evenodd;
        stroke-width: 0px;
      }
    </style>
  </defs>
  <path class="cls-1" d="M171.73,523.32c.52.52.8,1.22.8,1.95v13.13c-.01.74-.33,1.45-.87,1.96-.55.54-1.42.71-2.07.83l-99.1-.07c-1.54-.02-2.79-1.28-2.79-2.82v-14.88c0-.53.33-1.23.86-1.82l74.1-82.59h-76.18s-.02,0-.04,0c-1.51,0-2.74-1.23-2.74-2.74h0s.1-13.43.1-13.43h0c0-1.53,1.24-2.78,2.78-2.78h.06l99.1.13c1.54.02,2.78,1.27,2.78,2.81v14.17c0,1.04-.22,1.74-.74,2.32l-73.97,82.99h75.94c.74,0,1.46.3,1.97.83h0ZM307.4,436.59c11.51,11.59,17.96,27.27,17.96,43.61v.61c-.08,16.54-6.79,32.37-18.61,43.93-11.88,11.71-27.66,18.25-44.22,17.97-16.55-.07-32.37-6.79-43.94-18.61-11.51-11.59-17.98-27.28-17.98-43.62v-.6c.08-16.54,6.8-32.38,18.62-43.95,11.59-11.5,27.28-17.97,43.61-17.97h.6c16.54.08,32.37,6.8,43.94,18.61h0ZM305.42,480.66c0-.08,0-.17,0-.25,0-23.31-18.8-42.28-42.11-42.48-23.34-.13-42.56,18.71-42.74,42.11v.25c0,23.31,18.8,42.28,42.11,42.48h.31c23.29-.03,42.21-18.81,42.42-42.1h0ZM590.17,539.16c.08.18.13.37.13.57,0,.28-.08.55-.24.78-.25.4-.7.65-1.17.65h-18.1c-.56,0-1.07-.34-1.3-.85l-11.36-26.63h-61.63s-11.95,26.64-11.95,26.64c-.24.51-.75.84-1.32.84h-18.3c-.48,0-.94-.25-1.19-.67-.15-.23-.23-.5-.23-.77,0-.2.04-.4.13-.58l53.84-118.03c.28-.6.71-.98,1.11-.98h18.87c.51,0,.94.87,1.05,1.11l51.67,117.91h0ZM549.8,494.75l-21.99-50.13-22.72,50.12h44.7ZM430.5,522.15h-51.53v-100.9s0-.02,0-.03c0-.61-.49-1.1-1.1-1.11h-8.85s-8.85,0-8.85,0c-.6,0-1.1.5-1.1,1.11v118.78c0,.44.26.85.67,1.02.14.06.28.09.43.09l69.18.05h1.13s.02,0,.02,0c.61,0,1.1-.49,1.11-1.1v-16.83c0-.61-.5-1.09-1.11-1.09h-.02ZM892.22,484.92c-11.82,25.14-45.79,44.76-64.99,54.22-4.17,2.06-7.62,3.61-8.84,4.11-1.07.48-2.22.76-3.39.83h-.35s-.08,0-.08,0c-1.18-.07-2.34-.36-3.42-.85-2.97-1.27-5.94-2.67-8.82-4.11-12.77-6.29-32.08-17.08-47.05-30.99-14.97,13.92-34.27,24.71-47.04,30.99-4.17,2.06-7.62,3.61-8.84,4.12-.02,0-1.51.73-3.4.83h-.35s-.09,0-.09,0c-1.89-.11-3.39-.83-3.42-.85-2.97-1.27-5.94-2.67-8.82-4.11-19.21-9.45-53.18-29.08-64.99-54.23-2.94-6.24-4.47-13.07-4.47-19.97,0-5.53.98-11.03,2.89-16.21,4.48-12.29,13.72-22.3,25.62-27.73,16.5-7.64,35.71-5.73,50.11,5,1.08.81,2.12,1.65,3.13,2.55l.15.14.16-.14c1-.89,2.05-1.75,3.12-2.56,14.41-10.72,33.61-12.63,50.12-4.99,2.11.98,4.15,2.1,6.11,3.36,1.96-1.26,3.99-2.38,6.11-3.36,16.5-7.64,35.71-5.73,50.11,5,1.08.81,2.12,1.65,3.13,2.55l.15.14.16-.14c1-.89,2.05-1.75,3.13-2.56,14.4-10.72,33.6-12.63,50.11-4.99,11.9,5.44,21.14,15.44,25.62,27.73,1.91,5.19,2.89,10.69,2.89,16.22,0,6.9-1.53,13.73-4.46,19.97h0ZM755.27,481.1c.72-1.19,1.38-2.42,1.98-3.68,1.83-3.9,2.78-8.16,2.78-12.47,0-3.48-.62-6.94-1.83-10.2-.76-2.08-1.75-4.08-2.93-5.96-1.18,1.88-2.17,3.88-2.92,5.97-1.21,3.26-1.83,6.71-1.83,10.19,0,4.31.95,8.58,2.79,12.48.59,1.26,1.25,2.48,1.97,3.68h0ZM743.47,495.11c-2.36-3.18-4.43-6.61-6.13-10.18-2.94-6.24-4.47-13.07-4.47-19.98,0-5.53.98-11.03,2.89-16.21,1.51-4.14,3.57-8.08,6.13-11.66l-.13-.07c-4.23-1.97-8.84-2.99-13.51-2.99h-.04c-6.8,0-13.23,2.12-18.61,6.14-2.92,2.16-6.18,5.15-10.27,12.17-1.12,2.06-2.82,5.19-2.98,5.4-.12.19-.35.53-.58.53-.22,0-.45-.34-.61-.55-.97-1.76-2-3.62-2.96-5.39-4.09-7.02-7.36-10-10.27-12.17-5.33-3.98-11.81-6.13-18.47-6.13h-.13c-4.69,0-9.25,1.01-13.55,3-7.64,3.47-13.56,9.87-16.44,17.75-1.21,3.26-1.83,6.72-1.83,10.2,0,4.31.95,8.57,2.78,12.47,9.88,21.03,43.02,39.1,56.82,45.9,1.51.75,3.03,1.48,4.56,2.19l.1.05.1-.05c1.53-.71,3.05-1.44,4.56-2.19,9.71-4.79,29.02-15.16,43.04-28.22h0ZM877.2,454.76c-2.87-7.88-8.8-14.29-16.43-17.76-4.23-1.97-8.85-3-13.51-3h-.04c-6.8,0-13.23,2.12-18.61,6.13-2.92,2.17-6.18,5.16-10.28,12.18-1.11,2.06-2.82,5.19-2.97,5.4-.12.19-.35.53-.58.53s-.45-.34-.6-.55c-.95-1.75-1.99-3.58-2.94-5.36-4.09-7.02-7.36-10-10.27-12.18-5.34-3.99-11.83-6.15-18.48-6.15h-.14c-4.69,0-9.25,1.01-13.55,3l-.13.07c2.56,3.59,4.62,7.51,6.13,11.66,1.9,5.19,2.89,10.69,2.89,16.22,0,6.9-1.53,13.73-4.46,19.97-1.72,3.57-3.77,7-6.13,10.19,14.02,13.06,33.32,23.43,43.04,28.22,1.51.75,3.03,1.48,4.56,2.19l.1.05.1-.05c1.53-.71,3.05-1.44,4.56-2.19,13.79-6.8,46.94-24.87,56.82-45.9,1.83-3.9,2.78-8.16,2.78-12.47,0-3.48-.62-6.94-1.83-10.2h0ZM877.2,454.76h0Z"/>
</svg>